<?xml version="1.0" encoding="UTF-8"?>
<svg xmlns="http://www.w3.org/2000/svg" xmlns:xlink="http://www.w3.org/1999/xlink" width="512px" height="512px" viewBox="0 0 512 512" version="1.1">
<g id="surface1">
<path style=" stroke:none;fill-rule:nonzero;fill:rgb(0%,0%,0%);fill-opacity:1;" d="M 0 256 L 0 512 L 512 512 L 512 0 L 0 0 Z M 82.535156 52.734375 C 82.945312 53.554688 83.761719 54.273438 84.582031 54.273438 C 85.300781 54.273438 87.449219 55.601562 89.292969 57.140625 C 91.136719 58.777344 94.414062 60.824219 96.460938 61.746094 C 98.507812 62.769531 100.453125 64.308594 100.863281 65.332031 C 101.171875 66.253906 103.527344 68.609375 105.984375 70.554688 C 110.285156 73.726562 112.332031 75.570312 123.390625 85.914062 C 125.644531 88.0625 128.613281 90.214844 130.046875 90.625 C 136.191406 92.46875 147.25 98.714844 150.527344 102.296875 C 159.230469 111.511719 161.585938 115.609375 168.550781 132.300781 C 170.1875 136.191406 171.828125 139.265625 172.339844 139.265625 C 172.851562 139.265625 176.539062 140.289062 180.53125 141.515625 C 188.210938 143.769531 192.308594 147.046875 195.6875 153.292969 C 197.121094 155.851562 198.246094 156.46875 202.238281 156.980469 C 211.355469 158.308594 214.734375 157.902344 215.347656 155.648438 C 216.679688 150.527344 213.914062 145.816406 205.925781 139.777344 C 203.777344 138.035156 201.214844 135.476562 200.292969 133.9375 C 198.757812 131.378906 198.757812 130.96875 200.398438 127.589844 C 201.933594 124.210938 201.933594 123.800781 200.191406 119.808594 C 199.167969 117.554688 197.9375 115.710938 197.53125 115.710938 C 196.300781 115.710938 189.441406 101.070312 189.441406 98.507812 C 189.441406 97.175781 188.519531 94.308594 187.289062 91.957031 C 185.34375 88.167969 185.242188 86.628906 185.753906 78.132812 C 186.777344 64.613281 188.722656 61.234375 194.867188 62.976562 C 200.089844 64.410156 201.726562 65.945312 203.367188 71.066406 C 204.289062 73.933594 206.335938 77.925781 207.769531 79.871094 C 209.304688 81.816406 211.355469 85.09375 212.378906 87.140625 C 213.402344 89.089844 215.550781 91.441406 217.191406 92.46875 C 218.828125 93.390625 221.492188 96.257812 223.027344 98.816406 C 224.5625 101.375 229.476562 107.109375 233.984375 111.511719 C 253.441406 130.457031 265.726562 143.566406 267.777344 147.355469 C 268.59375 149.09375 269.824219 150.527344 270.335938 150.527344 C 270.949219 150.527344 271.359375 151.140625 271.359375 151.859375 C 271.359375 152.574219 272.382812 153.601562 273.613281 154.113281 C 274.945312 154.726562 276.070312 156.058594 276.273438 157.183594 C 276.480469 158.308594 277.195312 159.640625 277.707031 160.257812 C 278.527344 160.972656 278.628906 160.664062 278.222656 159.4375 C 277.8125 158.308594 277.914062 157.796875 278.527344 158.207031 C 279.140625 158.515625 279.550781 159.4375 279.550781 160.050781 C 279.550781 161.894531 284.261719 166.605469 287.742188 168.449219 C 289.484375 169.371094 290.816406 169.777344 290.816406 169.371094 C 290.816406 168.960938 291.429688 169.164062 292.148438 169.777344 C 292.761719 170.292969 296.859375 171.109375 301.054688 171.519531 C 307.8125 172.132812 313.34375 173.160156 318.464844 174.59375 C 319.285156 174.796875 321.125 175.308594 322.457031 175.71875 L 324.914062 176.433594 L 324.300781 168.859375 C 322.96875 154.316406 322.253906 127.488281 322.96875 121.546875 C 323.890625 114.074219 327.371094 109.875 335.566406 106.1875 C 345.496094 101.683594 352.460938 100.453125 370.378906 99.839844 C 389.222656 99.226562 395.671875 100.25 401.203125 104.960938 C 402.945312 106.394531 405.09375 107.519531 406.117188 107.519531 C 409.601562 107.621094 416.257812 111.308594 419.226562 114.789062 L 422.195312 118.273438 L 421.582031 136.191406 C 421.273438 146.023438 420.042969 162.304688 418.816406 172.238281 C 417.585938 182.273438 416.769531 191.179688 417.175781 192 C 417.484375 192.820312 418.917969 193.535156 420.351562 193.535156 C 423.21875 193.535156 435.917969 196.710938 443.902344 199.476562 C 452.914062 202.546875 469.707031 212.273438 472.371094 216.0625 C 473.394531 217.496094 483.019531 228.351562 490.699219 236.644531 C 493.875 240.027344 497.664062 248.628906 497.664062 252.414062 C 497.664062 260.300781 490.292969 268.082031 482.097656 268.902344 C 479.640625 269.105469 476.261719 269.824219 474.417969 270.4375 C 472.679688 270.949219 469.402344 271.359375 467.25 271.15625 C 461.621094 270.746094 456.089844 272.179688 451.992188 274.945312 C 446.257812 278.835938 438.578125 281.089844 435.609375 279.65625 C 434.175781 279.039062 432.128906 278.527344 431 278.527344 C 429.875 278.527344 426.085938 275.761719 422.707031 272.382812 C 418.097656 267.878906 415.640625 266.238281 413.59375 266.238281 L 410.828125 266.238281 L 410.214844 275.660156 C 409.90625 280.882812 409.394531 296.449219 409.089844 310.273438 C 408.78125 324.097656 408.167969 335.667969 407.757812 336.078125 C 406.734375 337.101562 379.1875 343.039062 375.707031 343.039062 C 373.761719 343.039062 372.222656 343.960938 370.789062 345.90625 C 369.664062 347.441406 366.59375 350.308594 364.03125 352.257812 C 361.371094 354.203125 356.761719 358.296875 353.894531 361.164062 C 346.417969 368.640625 342.835938 368.332031 346.726562 360.550781 C 348.261719 357.476562 348.261719 357.171875 346.523438 355.839844 C 345.496094 355.125 344.167969 354.714844 343.550781 355.019531 C 342.734375 355.226562 342.527344 354.304688 342.835938 352.152344 C 343.246094 349.183594 343.140625 348.980469 340.890625 349.695312 C 338.535156 350.308594 338.535156 350.308594 341.09375 348.46875 L 343.859375 346.625 L 341.195312 344.679688 C 338.839844 342.835938 338.535156 342.835938 337.40625 344.371094 C 336.691406 345.394531 335.257812 346.113281 334.132812 346.113281 C 333.105469 346.113281 331.671875 346.625 330.957031 347.339844 C 330.035156 348.261719 329.726562 347.957031 329.726562 346.007812 C 329.726562 344.574219 328.191406 341.605469 326.144531 339.25 L 322.664062 335.15625 L 328.703125 333.824219 C 333.925781 332.699219 334.847656 332.1875 334.746094 330.34375 C 334.644531 328.601562 334.539062 328.601562 334.132812 329.933594 C 333.515625 332.289062 331.777344 332.390625 331.777344 330.136719 C 331.777344 328.5 330.648438 328.5 324.914062 330.238281 C 322.96875 330.855469 322.558594 330.648438 322.558594 328.804688 C 322.558594 327.269531 323.6875 326.144531 326.65625 325.019531 C 330.648438 323.378906 332.59375 320.820312 329.011719 321.945312 C 321.125 324.199219 319.589844 323.6875 319.488281 318.976562 C 319.488281 315.699219 309.554688 303.207031 304.230469 299.828125 C 301.261719 297.882812 300.441406 297.0625 302.078125 297.472656 C 303.511719 297.882812 305.972656 299.109375 307.507812 300.238281 C 309.65625 301.773438 311.296875 302.078125 313.957031 301.566406 C 316.109375 301.261719 318.15625 301.363281 318.976562 302.078125 C 319.691406 302.695312 321.84375 303.617188 323.789062 304.128906 L 327.167969 305.050781 L 323.585938 301.875 C 321.636719 300.03125 320.101562 298.085938 320.308594 297.574219 C 320.820312 296.039062 318.257812 294.910156 313.855469 294.910156 C 310.785156 294.910156 310.167969 294.605469 311.296875 293.886719 C 312.113281 293.375 315.1875 292.863281 318.054688 292.863281 C 322.558594 292.863281 323.480469 292.453125 325.425781 289.792969 C 326.757812 288.050781 328.5 286.71875 329.421875 286.71875 C 330.855469 286.71875 330.957031 285.082031 330.238281 271.566406 C 329.832031 263.269531 329.421875 256.410156 329.320312 256.308594 C 328.804688 255.691406 318.464844 261.324219 318.464844 262.144531 C 318.464844 262.757812 317.953125 263.167969 317.441406 263.167969 C 316.210938 263.167969 300.03125 279.65625 300.03125 280.882812 C 300.03125 281.394531 302.488281 284.261719 305.5625 287.335938 C 308.632812 290.40625 310.578125 292.863281 309.863281 292.863281 C 309.144531 292.863281 307.710938 291.941406 306.6875 290.816406 C 305.664062 289.585938 304.128906 288.972656 303.410156 289.175781 C 302.695312 289.484375 300.238281 288.152344 298.085938 286.207031 C 295.9375 284.261719 293.785156 282.625 293.375 282.625 C 292.964844 282.625 291.328125 283.75 289.585938 285.183594 C 287.949219 286.617188 285.902344 287.742188 285.183594 287.742188 C 284.363281 287.742188 282.523438 288.257812 280.882812 288.871094 L 278.015625 289.996094 L 283.136719 292.453125 C 288.769531 295.117188 288.152344 295.628906 282.007812 293.582031 C 278.9375 292.558594 276.480469 292.453125 271.359375 293.273438 C 265.625 294.296875 264.703125 294.707031 264.398438 296.652344 C 264.089844 298.496094 263.371094 299.007812 261.019531 299.007812 C 259.378906 299.007812 258.046875 298.496094 258.046875 297.984375 C 258.046875 296.550781 256.410156 296.652344 252.621094 298.394531 C 248.523438 300.03125 241.152344 301.976562 232.449219 303.511719 C 227.941406 304.332031 225.894531 305.152344 226.097656 306.074219 C 226.304688 306.894531 225.691406 307.097656 224.257812 306.6875 C 221.492188 305.867188 217.089844 306.894531 217.089844 308.328125 C 217.089844 308.941406 219.339844 311.5 222.207031 314.0625 C 224.972656 316.621094 227.328125 319.078125 227.328125 319.691406 C 227.328125 320.203125 225.175781 318.769531 222.617188 316.519531 C 216.78125 311.398438 206.644531 306.175781 202.34375 306.074219 C 200.398438 306.074219 199.78125 305.765625 200.703125 305.355469 C 201.523438 304.945312 203.570312 303.71875 205.105469 302.695312 C 207.566406 301.054688 208.179688 300.953125 208.894531 302.078125 C 209.40625 303 209.304688 304.128906 208.691406 304.84375 C 207.257812 306.585938 209 306.585938 211.457031 304.742188 C 213.300781 303.410156 213.300781 303.308594 210.535156 300.75 L 207.769531 298.1875 L 216.269531 295.628906 C 225.382812 292.863281 232.34375 291.738281 242.175781 291.429688 C 245.554688 291.328125 249.652344 290.714844 251.1875 289.996094 C 253.953125 288.871094 253.953125 288.664062 252.414062 285.796875 C 251.597656 284.058594 249.242188 282.007812 246.785156 280.984375 C 242.277344 278.9375 242.996094 277.503906 248.523438 277.503906 C 250.675781 277.503906 253.03125 278.527344 255.179688 280.269531 C 260.710938 284.875 264.804688 286.824219 267.777344 286.105469 C 271.054688 285.285156 270.949219 284.570312 267.46875 280.78125 C 265.523438 278.734375 263.269531 277.503906 260.097656 277.09375 C 249.855469 275.558594 249.546875 275.355469 239.105469 265.011719 C 232.859375 258.765625 227.738281 254.667969 225.996094 254.257812 C 224.460938 253.953125 222.925781 253.234375 222.617188 252.722656 C 222.207031 252.007812 223.230469 252.007812 225.382812 252.414062 C 227.328125 252.824219 229.273438 253.847656 229.683594 254.566406 C 230.09375 255.386719 231.117188 256 231.730469 256 C 232.449219 256 233.574219 256.511719 234.292969 257.230469 C 235.007812 257.945312 237.261719 258.355469 239.410156 258.253906 C 242.378906 258.046875 244.328125 258.765625 248.21875 261.632812 C 253.335938 265.320312 255.285156 265.113281 254.257812 261.019531 C 253.542969 258.355469 245.964844 252.929688 242.894531 252.929688 C 241.355469 252.929688 240.640625 252.414062 240.945312 251.597656 C 241.152344 250.878906 243.097656 250.367188 245.65625 250.367188 C 248.011719 250.367188 250.265625 249.855469 250.675781 249.242188 C 251.085938 248.628906 252.414062 247.601562 253.746094 246.886719 C 256.410156 245.453125 256.921875 242.378906 254.257812 243.40625 C 253.03125 243.917969 252.824219 243.710938 253.441406 242.6875 C 254.054688 241.664062 253.847656 241.460938 252.519531 241.972656 C 250.0625 242.996094 243.917969 239.71875 245.863281 238.488281 C 246.679688 237.976562 246.886719 237.566406 246.273438 237.566406 C 245.761719 237.566406 243.917969 236.441406 242.175781 235.007812 L 239.105469 232.34375 L 243.199219 233.984375 C 245.453125 234.90625 247.398438 235.210938 247.601562 234.699219 C 247.707031 234.292969 249.445312 234.085938 251.496094 234.292969 C 254.363281 234.597656 255.386719 235.417969 257.023438 238.488281 C 259.175781 242.484375 259.6875 242.378906 258.152344 238.285156 L 257.125 235.726562 L 261.425781 237.054688 C 263.78125 237.773438 268.492188 239.617188 271.769531 241.050781 L 277.914062 243.8125 L 283.546875 240.230469 C 286.617188 238.285156 289.382812 236.238281 289.585938 235.726562 C 290.097656 234.085938 283.75 231.117188 280.984375 231.730469 C 279.65625 231.9375 278.835938 231.832031 279.039062 231.425781 C 279.347656 230.910156 278.527344 230.605469 277.195312 230.605469 C 273.304688 230.503906 258.765625 227.53125 254.15625 225.894531 C 249.753906 224.359375 240.640625 218.523438 240.640625 217.394531 C 240.640625 216.984375 241.152344 217.191406 241.867188 217.90625 C 243.40625 219.441406 244.734375 219.546875 244.734375 218.113281 C 244.734375 217.601562 242.894531 215.757812 240.640625 214.117188 C 238.285156 212.480469 236.851562 210.945312 237.261719 210.636719 C 237.671875 210.433594 242.6875 210.125 248.320312 210.125 C 255.285156 210.023438 258.765625 210.328125 259.277344 211.25 C 259.890625 212.171875 260.503906 212.171875 262.144531 211.148438 C 264.804688 209.511719 266.238281 209.613281 266.238281 211.457031 C 266.238281 213.195312 268.800781 213.605469 269.824219 211.96875 C 270.539062 210.839844 274.328125 212.273438 278.835938 215.347656 C 282.113281 217.601562 287.230469 224.050781 286.414062 224.871094 C 285.902344 225.382812 272.691406 223.128906 254.976562 219.648438 C 252.519531 219.136719 252.519531 219.136719 254.363281 220.570312 C 255.386719 221.390625 261.632812 223.335938 268.082031 224.871094 C 274.636719 226.40625 282.523438 228.761719 285.59375 230.09375 C 292.042969 232.960938 292.863281 232.449219 292.863281 225.175781 C 292.863281 222.207031 291.941406 218.625 290.203125 215.246094 C 285.390625 205.515625 277.195312 201.421875 263.167969 201.523438 C 258.355469 201.523438 251.496094 202.34375 248.011719 203.160156 C 244.53125 204.082031 235.929688 205.515625 228.964844 206.335938 C 221.492188 207.257812 213.8125 208.792969 210.226562 210.125 L 204.289062 212.480469 L 209.203125 212.789062 C 213.300781 213.09375 214.015625 213.402344 213.605469 214.835938 C 211.761719 221.390625 211.761719 223.230469 213.707031 223.335938 C 215.347656 223.335938 215.347656 223.4375 213.503906 224.152344 C 210.328125 225.484375 209.613281 224.359375 210.328125 219.546875 C 210.738281 216.574219 210.535156 215.039062 209.816406 215.039062 C 207.769531 215.039062 196.097656 226.507812 195.277344 229.273438 C 194.046875 233.265625 194.253906 243.097656 195.585938 248.832031 C 196.914062 254.15625 197.425781 254.769531 199.476562 252.722656 C 200.398438 251.800781 200.703125 251.800781 200.703125 252.722656 C 200.703125 254.15625 196.914062 256.308594 196.300781 255.28125 C 194.355469 251.800781 192.308594 242.378906 192.308594 237.261719 C 192.410156 230.707031 193.125 227.636719 196.097656 220.875 C 197.835938 216.679688 197.632812 216.679688 192.511719 220.261719 C 190.257812 221.796875 189.234375 221.902344 184.730469 220.875 C 181.863281 220.160156 178.789062 219.035156 177.867188 218.214844 C 176.742188 217.292969 172.75 216.78125 166.195312 216.574219 C 157.695312 216.371094 150.117188 214.9375 143.871094 212.378906 C 142.746094 211.867188 147.046875 212.480469 152.984375 213.605469 C 155.546875 214.015625 156.773438 213.914062 156.363281 213.300781 C 155.957031 212.683594 154.316406 211.96875 152.679688 211.660156 C 151.039062 211.355469 147.96875 209.816406 145.921875 208.382812 C 143.769531 206.949219 141.003906 205.824219 139.777344 205.824219 C 138.546875 205.824219 136.910156 205.105469 136.191406 204.289062 C 135.476562 203.46875 134.453125 202.753906 133.835938 202.753906 C 132.609375 202.753906 123.597656 198.347656 119.296875 195.585938 C 117.65625 194.558594 114.175781 192.613281 111.617188 191.386719 C 101.992188 186.574219 87.039062 173.671875 85.503906 168.859375 C 85.09375 167.730469 84.378906 166.910156 83.867188 166.910156 C 81.921875 166.910156 83.046875 163.53125 86.015625 160.664062 L 89.089844 157.59375 L 87.140625 151.757812 C 86.117188 148.582031 84.683594 143.359375 83.96875 140.289062 C 83.25 137.214844 81.40625 131.6875 79.871094 128 C 78.234375 124.3125 76.699219 119.601562 76.289062 117.453125 C 75.671875 114.585938 74.035156 112.128906 69.9375 108.238281 C 63.386719 101.992188 61.441406 98.609375 61.441406 94.003906 C 61.542969 89.703125 65.023438 87.039062 71.78125 86.117188 L 76.800781 85.503906 L 73.214844 79.566406 C 71.269531 76.289062 69.632812 73.214844 69.632812 72.804688 C 69.632812 72.398438 68.402344 69.734375 66.96875 67.070312 C 62.976562 59.390625 63.796875 52.941406 68.8125 51.917969 C 74.753906 50.789062 82.023438 51.199219 82.535156 52.734375 Z M 121.855469 212.683594 C 118.785156 213.503906 113.460938 214.324219 110.078125 214.527344 C 101.582031 215.039062 90.828125 218.625 86.425781 222.414062 C 82.328125 225.996094 82.535156 227.429688 86.734375 224.5625 C 92.058594 220.875 92.671875 220.773438 89.191406 224.460938 C 87.039062 226.714844 84.582031 231.117188 82.839844 235.929688 C 81.304688 240.128906 79.15625 244.941406 78.027344 246.476562 C 74.035156 252.3125 73.113281 260.609375 75.777344 266.753906 C 76.289062 267.878906 76.902344 270.4375 77.003906 272.382812 C 77.3125 275.457031 77.722656 275.96875 80.179688 276.273438 C 81.816406 276.480469 87.246094 275.457031 92.261719 274.023438 C 97.382812 272.589844 102.09375 271.359375 102.808594 271.359375 C 107.007812 271.359375 114.378906 268.082031 116.121094 265.320312 C 118.785156 261.425781 122.878906 260.300781 137.726562 259.585938 C 149.402344 258.96875 149.8125 259.070312 146.535156 260.609375 L 143.054688 262.144531 L 150.835938 270.234375 C 155.035156 274.636719 159.128906 279.347656 159.847656 280.679688 C 160.5625 282.007812 157.59375 279.347656 153.191406 274.738281 C 147.867188 269.003906 143.460938 265.421875 139.570312 263.578125 C 133.9375 260.8125 133.9375 260.8125 130.457031 262.65625 C 126.363281 264.804688 126.875 265.523438 136.398438 270.132812 C 141.105469 272.488281 144.691406 275.148438 147.558594 278.527344 C 151.140625 282.828125 152.167969 283.441406 154.625 283.035156 C 158.105469 282.316406 164.25 285.285156 163.429688 287.335938 C 163.125 288.050781 163.226562 288.664062 163.738281 288.460938 C 164.148438 288.359375 167.015625 290.714844 170.085938 293.683594 C 173.054688 296.652344 178.378906 300.441406 181.761719 302.183594 C 187.800781 305.253906 187.902344 305.253906 183.707031 304.539062 C 180.222656 304.027344 178.277344 304.539062 171.621094 307.710938 C 167.21875 309.761719 163.429688 311.296875 163.226562 310.988281 C 162.816406 310.578125 156.46875 312.113281 141.3125 316.210938 C 139.878906 316.621094 138.753906 317.644531 138.753906 318.464844 C 138.753906 319.28125 137.523438 320.613281 135.988281 321.535156 C 133.425781 322.867188 133.019531 322.867188 131.480469 321.332031 C 129.84375 319.691406 129.945312 319.488281 133.222656 318.054688 C 136.703125 316.414062 136.601562 316.414062 129.535156 317.03125 C 124.109375 317.441406 121.445312 318.257812 118.476562 320.203125 C 115.917969 322.046875 114.996094 323.175781 115.8125 323.6875 C 116.53125 324.097656 117.761719 324.199219 118.578125 323.789062 C 119.707031 323.378906 119.910156 323.6875 119.296875 324.609375 C 118.476562 325.9375 120.832031 325.835938 128 324.097656 C 130.046875 323.585938 130.253906 323.6875 128.820312 324.503906 C 127.898438 325.121094 124.722656 326.246094 121.652344 327.066406 L 116.222656 328.398438 L 115.917969 332.902344 C 115.710938 335.359375 115.199219 337.613281 114.789062 337.921875 C 113.765625 338.636719 111.207031 353.28125 112.027344 353.996094 C 112.332031 354.40625 112.640625 354.203125 112.640625 353.585938 C 112.640625 352.664062 118.273438 351.230469 123.289062 350.824219 C 123.699219 350.71875 125.234375 347.75 126.464844 344.167969 C 131.277344 330.957031 139.777344 325.121094 152.574219 326.042969 C 156.46875 326.347656 159.847656 326.144531 160.769531 325.53125 C 161.894531 324.710938 161.28125 324.609375 158.207031 325.019531 C 155.441406 325.324219 156.875 324.609375 162.507812 322.765625 C 168.960938 320.71875 171.007812 319.589844 171.007812 318.15625 C 171.007812 316.621094 171.316406 316.519531 173.363281 317.542969 C 174.59375 318.257812 175.617188 318.667969 175.617188 318.566406 C 175.617188 318.464844 176.332031 318.566406 177.253906 318.976562 C 178.175781 319.28125 182.375 318.464844 186.574219 317.03125 C 200.191406 312.628906 208.894531 315.289062 220.773438 327.476562 C 227.636719 334.4375 228.148438 334.746094 228.558594 332.390625 C 228.863281 330.957031 228.25 329.011719 227.226562 327.578125 C 224.050781 323.480469 225.074219 322.96875 228.863281 326.65625 C 230.808594 328.601562 232.449219 329.625 232.449219 329.113281 C 232.449219 328.5 231.9375 327.578125 231.21875 326.859375 C 230.398438 326.042969 230.398438 325.632812 231.117188 325.632812 C 235.417969 325.632812 247.707031 355.738281 244.632812 358.808594 C 244.019531 359.425781 243.710938 359.425781 243.710938 358.808594 C 243.710938 358.195312 242.996094 357.683594 242.175781 357.683594 C 241.355469 357.683594 240.640625 358.09375 240.640625 358.605469 C 240.640625 360.449219 237.363281 360.652344 235.417969 358.808594 C 233.984375 357.476562 233.164062 357.273438 232.652344 358.09375 C 232.242188 358.808594 229.683594 359.832031 227.019531 360.34375 C 220.46875 361.882812 213.707031 364.644531 212.683594 366.183594 C 212.273438 366.898438 210.226562 367.820312 208.078125 368.230469 C 206.027344 368.640625 203.878906 369.253906 203.265625 369.664062 C 202.753906 370.074219 201.011719 370.6875 199.476562 371.097656 C 197.835938 371.40625 196.609375 372.222656 196.609375 372.734375 C 196.609375 373.351562 195.277344 373.761719 193.535156 373.761719 C 190.667969 373.761719 190.464844 374.066406 190.464844 377.242188 C 190.464844 381.953125 191.589844 382.464844 196.503906 379.902344 C 198.757812 378.777344 203.058594 377.140625 206.027344 376.320312 C 209 375.5 214.628906 373.65625 218.417969 372.222656 C 222.207031 370.789062 226.203125 369.664062 227.125 369.664062 C 228.148438 369.664062 230.707031 368.742188 232.960938 367.617188 C 235.210938 366.488281 237.160156 365.566406 237.261719 365.566406 C 237.464844 365.566406 237.566406 366.898438 237.566406 368.640625 C 237.566406 371.609375 238.898438 372.734375 240.027344 370.789062 C 240.332031 370.277344 241.5625 370.074219 242.585938 370.378906 C 244.019531 370.6875 244.734375 370.074219 245.554688 367.921875 C 246.476562 365.566406 246.679688 366.488281 246.679688 373.554688 C 246.785156 380.109375 246.167969 383.898438 244.222656 389.835938 C 242.789062 394.136719 241.867188 397.824219 242.074219 398.132812 C 242.789062 398.847656 247.195312 395.878906 250.367188 392.5 C 253.746094 388.8125 259.070312 378.265625 259.070312 375.089844 C 259.070312 373.554688 259.6875 372.734375 260.710938 372.734375 C 262.042969 372.734375 262.246094 373.453125 261.835938 376.320312 L 261.222656 379.902344 L 266.035156 377.445312 C 283.648438 368.539062 305.664062 358.398438 307.300781 358.398438 C 308.429688 358.398438 310.679688 357.683594 312.320312 356.863281 C 314.367188 355.839844 315.496094 355.636719 316.007812 356.453125 C 316.621094 357.476562 320.613281 352.050781 320.921875 349.59375 C 321.230469 347.441406 323.789062 345.089844 325.734375 345.089844 C 328.703125 345.089844 327.988281 347.957031 324.609375 349.695312 C 320.921875 351.640625 318.054688 355.738281 318.875 357.992188 C 319.488281 359.527344 319.691406 359.527344 322.046875 357.992188 C 323.480469 357.070312 324.609375 356.660156 324.609375 357.070312 C 324.609375 357.476562 326.042969 356.453125 327.78125 354.714844 C 331.265625 351.539062 331.160156 351.230469 329.113281 358.398438 C 328.804688 359.628906 329.011719 360.449219 329.726562 360.449219 C 330.445312 360.449219 329.933594 361.265625 328.703125 362.292969 C 326.65625 363.929688 326.554688 364.238281 328.089844 365.566406 C 329.421875 366.59375 330.855469 366.695312 334.335938 365.875 C 337.714844 365.054688 339.148438 365.160156 339.96875 366.078125 C 342.527344 369.152344 330.238281 370.996094 327.269531 368.027344 C 324.503906 365.363281 323.277344 362.496094 324.8125 362.394531 C 326.453125 362.292969 322.664062 360.652344 320.613281 360.550781 C 319.488281 360.449219 319.488281 360.753906 320.511719 361.882812 C 321.535156 363.210938 320.820312 363.726562 316.007812 365.054688 C 312.832031 365.976562 299.417969 372.019531 286.207031 378.46875 C 263.578125 389.53125 262.042969 390.453125 260.097656 394.238281 C 256.820312 400.691406 251.800781 405.605469 245.761719 408.472656 C 242.6875 410.007812 238.488281 412.160156 236.441406 413.390625 C 231.320312 416.664062 223.230469 418.203125 218.625 416.871094 C 215.246094 415.949219 213.195312 416.359375 200.292969 421.070312 C 192.410156 423.832031 183.089844 427.929688 179.8125 429.976562 C 174.488281 433.152344 172.851562 433.664062 167.527344 433.664062 C 145.714844 433.5625 127.386719 407.550781 122.367188 369.355469 C 121.957031 366.488281 121.242188 364.542969 120.421875 364.542969 C 117.554688 364.542969 104.652344 369.5625 99.941406 372.632812 C 93.492188 376.628906 88.371094 376.832031 81.101562 373.144531 C 63.898438 364.542969 49.972656 334.644531 51.40625 308.941406 C 52.328125 294.09375 57.652344 282.828125 65.433594 279.550781 C 68.199219 278.425781 68.402344 278.015625 67.789062 275.046875 C 67.378906 273.304688 67.070312 267.671875 67.070312 262.65625 C 67.070312 253.746094 67.277344 253.132812 71.988281 243.300781 C 74.648438 237.773438 76.800781 232.753906 76.800781 232.242188 C 76.800781 229.582031 81.511719 223.335938 85.300781 220.773438 C 92.980469 215.859375 111.207031 211.355469 124.414062 211.148438 C 126.566406 211.148438 125.847656 211.558594 121.855469 212.683594 Z M 106.1875 216.679688 C 105.882812 216.984375 104.960938 217.089844 104.242188 216.78125 C 103.425781 216.472656 103.730469 216.167969 104.859375 216.167969 C 105.984375 216.0625 106.597656 216.371094 106.1875 216.679688 Z M 231.117188 228.453125 C 237.054688 230.707031 241.460938 233.371094 236.75 231.9375 C 233.472656 231.015625 223.539062 226.40625 224.460938 226.40625 C 224.871094 226.304688 227.839844 227.328125 231.117188 228.453125 Z M 104.34375 232.859375 C 104.140625 233.0625 101.683594 233.472656 98.917969 233.777344 C 95.847656 234.085938 94.515625 233.882812 95.335938 233.371094 C 96.664062 232.550781 105.265625 232.039062 104.34375 232.859375 Z M 89.601562 247.910156 C 90.726562 249.140625 93.492188 251.496094 95.640625 253.03125 C 101.171875 257.125 98.609375 256.820312 92.671875 252.621094 C 90.007812 250.878906 86.835938 247.707031 85.707031 245.554688 C 83.660156 242.175781 83.660156 241.664062 84.992188 239 L 86.527344 236.238281 L 87.039062 240.945312 C 87.347656 243.507812 88.574219 246.679688 89.601562 247.910156 Z M 125.953125 240.640625 C 126.769531 241.152344 127.078125 241.664062 126.464844 241.664062 C 125.953125 241.664062 124.722656 241.152344 123.902344 240.640625 C 123.085938 240.128906 122.878906 239.617188 123.390625 239.617188 C 124.007812 239.617188 125.132812 240.128906 125.953125 240.640625 Z M 134.144531 243.917969 C 135.167969 244.53125 134.859375 244.632812 133.121094 244.121094 C 131.6875 243.8125 129.84375 242.996094 129.023438 242.484375 C 128 241.867188 128.308594 241.765625 130.046875 242.277344 C 131.480469 242.585938 133.324219 243.40625 134.144531 243.917969 Z M 139.777344 245.761719 C 141.105469 246.375 141.3125 246.679688 140.289062 246.679688 C 139.46875 246.679688 138.035156 246.273438 137.214844 245.761719 C 135.371094 244.53125 137.011719 244.53125 139.777344 245.761719 Z M 164.351562 253.953125 L 183.808594 260.402344 L 197.121094 258.664062 C 204.492188 257.636719 211.558594 256.511719 212.992188 256.101562 C 215.859375 255.179688 222.207031 255.796875 222.207031 257.023438 C 222.207031 257.433594 220.46875 258.046875 218.417969 258.355469 C 206.027344 259.890625 190.363281 262.347656 186.574219 263.167969 C 184.21875 263.78125 180.222656 264.191406 177.765625 264.191406 C 173.363281 264.191406 169.984375 266.035156 169.984375 268.492188 C 169.984375 269.105469 168.859375 268.800781 167.425781 267.878906 C 165.992188 266.957031 164.453125 266.445312 163.941406 266.648438 C 163.429688 266.957031 162.507812 266.546875 161.894531 265.832031 C 160.5625 264.191406 161.28125 263.886719 168.449219 262.65625 C 179.8125 260.8125 179.199219 259.789062 163.328125 254.976562 C 155.546875 252.621094 143.15625 247.910156 142.335938 246.988281 C 142.027344 246.679688 142.539062 246.679688 143.359375 246.988281 C 144.179688 247.296875 153.703125 250.367188 164.351562 253.953125 Z M 240.640625 249.855469 C 240.640625 251.800781 237.773438 250.878906 237.261719 248.832031 C 236.851562 247.089844 237.054688 246.988281 238.695312 247.910156 C 239.71875 248.421875 240.640625 249.34375 240.640625 249.855469 Z M 296.34375 299.929688 C 297.164062 301.160156 295.832031 301.566406 287.230469 303 C 283.339844 303.617188 275.96875 305.050781 270.847656 306.175781 C 265.832031 307.300781 257.535156 308.839844 252.414062 309.554688 C 247.398438 310.375 242.585938 311.195312 241.765625 311.398438 C 241.050781 311.601562 240.230469 311.296875 240.027344 310.785156 C 239.617188 309.65625 255.386719 305.664062 264.5 304.433594 C 267.160156 304.128906 269.621094 303.410156 269.925781 303 C 270.234375 302.488281 272.179688 302.078125 274.226562 301.976562 C 276.273438 301.976562 280.574219 301.261719 283.648438 300.542969 C 290.609375 299.007812 295.628906 298.699219 296.34375 299.929688 Z M 201.320312 308.734375 C 200.191406 309.554688 198.757812 310.273438 198.246094 310.273438 C 197.632812 310.273438 198.042969 309.554688 199.066406 308.734375 C 200.191406 307.917969 201.625 307.199219 202.136719 307.199219 C 202.753906 307.199219 202.34375 307.917969 201.320312 308.734375 Z M 241.253906 312.933594 C 242.585938 312.421875 246.273438 316.414062 248.832031 321.332031 C 250.878906 325.425781 247.707031 323.6875 240.128906 316.621094 C 235.007812 311.808594 234.085938 310.476562 236.441406 311.808594 C 238.285156 312.730469 240.433594 313.242188 241.253906 312.933594 Z M 168.753906 316.3125 C 158.71875 321.332031 126.257812 330.035156 129.535156 326.859375 C 130.765625 325.632812 141.3125 322.558594 144.28125 322.558594 C 145.511719 322.558594 146.433594 322.152344 146.433594 321.742188 C 146.433594 321.230469 149.09375 320.203125 152.371094 319.488281 C 155.546875 318.769531 161.175781 317.132812 164.863281 315.902344 C 173.976562 312.628906 175.820312 312.832031 168.753906 316.3125 Z M 405.503906 365.671875 C 423.628906 373.453125 431.308594 400.589844 420.964844 420.558594 C 418.097656 426.085938 409.191406 434.585938 402.535156 438.066406 C 385.742188 446.875 368.945312 448.101562 354.816406 441.445312 C 340.378906 434.789062 333.515625 423.628906 333.414062 407.039062 C 333.3125 398.539062 333.621094 397.210938 336.691406 390.964844 C 342.734375 378.675781 359.015625 366.488281 373.246094 363.621094 C 381.542969 361.984375 399.460938 363.109375 405.503906 365.671875 Z M 405.503906 365.671875 "/>
<path style=" stroke:none;fill-rule:nonzero;fill:rgb(0%,0%,0%);fill-opacity:1;" d="M 191.488281 76.289062 C 191.488281 82.023438 191.796875 84.070312 192.71875 83.761719 C 194.253906 83.25 195.070312 75.777344 193.636719 75.777344 C 193.023438 75.777344 192.511719 74.957031 192.511719 73.933594 C 192.511719 72.804688 192.820312 72.601562 193.332031 73.421875 C 193.84375 74.238281 194.664062 74.34375 195.585938 73.726562 C 197.425781 72.601562 195.789062 69.324219 193.125 68.8125 C 191.691406 68.503906 191.488281 69.53125 191.488281 76.289062 Z M 191.488281 76.289062 "/>
<path style=" stroke:none;fill-rule:nonzero;fill:rgb(0%,0%,0%);fill-opacity:1;" d="M 92.671875 77.824219 C 91.75 79.667969 91.238281 81.304688 91.546875 81.613281 C 91.75 81.921875 92.773438 80.691406 93.695312 78.847656 C 94.617188 77.003906 95.128906 75.367188 94.824219 75.058594 C 94.617188 74.753906 93.59375 75.980469 92.671875 77.824219 Z M 92.671875 77.824219 "/>
<path style=" stroke:none;fill-rule:nonzero;fill:rgb(0%,0%,0%);fill-opacity:1;" d="M 195.070312 83.96875 C 194.765625 84.480469 194.867188 84.992188 195.480469 84.992188 C 195.992188 84.992188 196.8125 84.480469 197.121094 83.96875 C 197.425781 83.355469 197.324219 82.945312 196.710938 82.945312 C 196.199219 82.945312 195.378906 83.355469 195.070312 83.96875 Z M 195.070312 83.96875 "/>
<path style=" stroke:none;fill-rule:nonzero;fill:rgb(0%,0%,0%);fill-opacity:1;" d="M 81.816406 96.359375 C 80.179688 98.714844 79.359375 99.226562 78.746094 98.097656 C 78.234375 97.382812 77.824219 97.175781 77.824219 97.691406 C 77.824219 98.203125 77.210938 97.996094 76.492188 97.382812 C 75.671875 96.769531 74.753906 96.5625 74.445312 96.871094 C 74.136719 97.28125 73.113281 96.769531 72.191406 95.847656 C 70.246094 93.902344 66.152344 93.59375 66.765625 95.4375 C 66.96875 96.050781 69.632812 97.792969 72.5 99.226562 C 75.671875 100.863281 77.824219 102.605469 77.824219 103.527344 C 77.824219 106.085938 80.488281 110.695312 81.40625 109.773438 C 81.921875 109.363281 81.921875 109.566406 81.613281 110.285156 C 81.203125 110.898438 82.328125 115.199219 84.171875 119.808594 L 87.449219 128.308594 L 88.679688 124.3125 C 93.695312 107.519531 95.335938 101.375 94.71875 100.351562 C 94.414062 99.839844 92.261719 99.328125 90.007812 99.328125 C 87.140625 99.328125 86.117188 98.917969 86.628906 98.097656 C 87.140625 97.28125 86.835938 97.175781 85.707031 97.585938 C 84.273438 98.097656 84.070312 97.792969 84.582031 95.742188 C 85.402344 92.363281 84.582031 92.570312 81.816406 96.359375 Z M 81.816406 96.359375 "/>
<path style=" stroke:none;fill-rule:nonzero;fill:rgb(0%,0%,0%);fill-opacity:1;" d="M 123.496094 101.582031 C 123.800781 102.09375 124.621094 102.398438 125.234375 102.296875 C 128.101562 101.992188 130.152344 102.503906 129.535156 103.425781 C 129.230469 103.9375 129.535156 104.140625 130.355469 103.832031 C 131.175781 103.527344 132.402344 104.140625 133.222656 105.0625 C 134.347656 106.394531 134.347656 106.90625 133.324219 107.210938 C 132.710938 107.519531 132.300781 108.132812 132.609375 108.644531 C 133.632812 110.183594 130.253906 115.40625 126.257812 118.679688 C 124.109375 120.421875 117.65625 125.542969 111.921875 130.152344 C 106.085938 134.65625 101.375 138.957031 101.375 139.570312 C 101.375 140.492188 101.171875 140.492188 100.558594 139.671875 C 99.738281 138.445312 89.292969 135.679688 88.472656 136.5 C 88.167969 136.804688 88.78125 137.320312 89.804688 137.625 C 91.035156 138.035156 93.082031 141.824219 95.742188 148.480469 C 98.304688 154.929688 100.351562 158.71875 101.375 158.824219 C 102.296875 158.824219 102.503906 159.027344 101.683594 159.335938 C 100.761719 159.742188 100.761719 160.664062 101.476562 162.40625 C 102.195312 164.351562 101.992188 165.582031 100.863281 167.21875 L 99.328125 169.371094 L 99.328125 167.21875 C 99.328125 164.351562 97.894531 163.429688 95.335938 164.863281 C 93.902344 165.582031 93.082031 165.582031 92.570312 164.761719 C 92.160156 163.941406 91.648438 164.042969 91.035156 164.964844 C 89.601562 167.21875 90.007812 169.984375 91.648438 169.984375 C 92.46875 169.984375 96.972656 172.132812 101.683594 174.796875 C 106.292969 177.5625 114.175781 181.554688 119.089844 183.808594 C 126.257812 187.1875 127.898438 188.3125 128 190.15625 C 128 191.796875 129.125 193.023438 131.890625 194.355469 C 133.9375 195.378906 135.578125 196.8125 135.371094 197.425781 C 134.859375 200.191406 165.785156 211.761719 177.050781 212.992188 C 181.246094 213.402344 185.242188 213.605469 185.957031 213.300781 C 186.675781 213.09375 188.621094 213.605469 190.363281 214.425781 C 193.433594 216.0625 193.535156 216.0625 201.933594 210.636719 C 206.644531 207.566406 211.25 204.902344 212.273438 204.492188 C 214.117188 203.777344 214.734375 199.679688 212.890625 199.679688 C 212.273438 199.679688 212.070312 198.757812 212.480469 197.632812 C 212.890625 196.199219 212.683594 195.585938 211.558594 195.585938 C 209.613281 195.585938 208.488281 197.324219 210.125 197.835938 C 210.839844 198.144531 210.328125 198.554688 209.101562 198.859375 C 206.949219 199.476562 206.847656 199.269531 207.359375 195.789062 C 207.871094 192.410156 207.667969 192.511719 206.335938 196.8125 C 204.800781 201.421875 204.59375 201.625 202.136719 200.703125 C 198.554688 199.269531 197.632812 199.371094 197.632812 201.214844 C 197.632812 202.34375 196.609375 202.136719 192.820312 200.191406 C 189.746094 198.65625 187.496094 198.144531 186.980469 198.757812 C 185.652344 199.988281 184.011719 199.988281 184.832031 198.65625 C 185.445312 197.734375 183.195312 197.121094 180.839844 197.53125 C 180.429688 197.632812 179.40625 197.121094 178.585938 196.503906 C 177.765625 195.890625 177.152344 195.6875 177.152344 195.992188 C 177.152344 196.402344 176.332031 196.199219 175.410156 195.6875 C 174.386719 195.175781 172.132812 194.558594 170.292969 194.253906 C 168.550781 193.945312 166.605469 193.433594 166.09375 193.125 C 165.582031 192.820312 163.839844 192.921875 162.203125 193.433594 C 158.925781 194.355469 156.363281 193.84375 157.183594 192.511719 C 157.492188 192 156.875 191.796875 155.957031 191.898438 C 154.929688 192.101562 153.496094 191.488281 152.679688 190.769531 C 151.859375 189.953125 150.117188 189.441406 148.890625 189.746094 C 147.558594 189.953125 146.738281 189.746094 147.046875 189.234375 C 147.355469 188.722656 146.433594 188.621094 145.101562 189.03125 C 141.621094 189.847656 137.832031 188.621094 139.058594 187.085938 C 140.289062 185.34375 140.492188 180.222656 139.265625 180.222656 C 138.648438 180.222656 138.238281 180.632812 138.238281 181.246094 C 138.238281 181.761719 137.421875 182.273438 136.5 182.273438 C 134.757812 182.375 134.757812 182.375 136.398438 183.398438 C 139.160156 184.933594 137.421875 187.390625 133.53125 187.390625 C 130.765625 187.390625 130.046875 186.980469 130.046875 185.34375 C 130.046875 184.113281 129.332031 183.296875 128.308594 183.195312 C 126.769531 183.195312 126.769531 182.988281 128.511719 182.273438 C 129.636719 181.761719 129.945312 181.351562 129.230469 181.351562 C 128.511719 181.246094 128.203125 180.734375 128.511719 180.222656 C 128.820312 179.609375 128.613281 179.199219 128.101562 179.199219 C 127.488281 179.199219 126.976562 178.789062 126.976562 178.175781 C 126.976562 177.664062 127.589844 177.355469 128.308594 177.5625 C 131.890625 178.6875 136.5 179.097656 135.679688 178.277344 C 134.554688 177.253906 126.363281 175.410156 118.578125 174.488281 C 114.175781 173.875 113.460938 174.078125 113.972656 175.410156 C 114.789062 177.664062 111.820312 178.484375 109.261719 176.640625 C 107.417969 175.308594 107.316406 175.105469 108.851562 175.105469 C 109.773438 175.105469 110.59375 175.511719 110.59375 176.128906 C 110.59375 176.640625 111 177.152344 111.511719 177.152344 C 113.050781 177.152344 112.433594 173.160156 110.796875 172.542969 C 110.078125 172.339844 109.773438 172.542969 110.078125 173.054688 C 110.386719 173.671875 110.285156 174.078125 109.773438 174.078125 C 109.160156 174.078125 108.441406 173.363281 108.132812 172.441406 C 107.828125 171.621094 107.109375 171.109375 106.597656 171.519531 C 106.085938 171.828125 105.265625 171.519531 104.960938 170.90625 C 104.550781 170.394531 103.628906 170.085938 102.910156 170.394531 C 101.992188 170.699219 101.785156 170.1875 102.195312 168.652344 C 102.503906 167.425781 102.910156 167.015625 103.21875 167.730469 C 103.730469 169.472656 107.519531 169.265625 107.519531 167.425781 C 107.519531 166.503906 106.597656 165.886719 105.265625 165.886719 C 103.015625 165.886719 103.015625 165.785156 104.859375 164.042969 C 106.1875 162.816406 106.90625 162.609375 107.210938 163.53125 C 107.519531 164.25 108.132812 164.863281 108.644531 164.863281 C 109.261719 164.863281 109.363281 164.25 108.953125 163.53125 C 108.339844 162.507812 108.542969 162.507812 109.671875 163.53125 C 110.386719 164.351562 113.253906 164.761719 116.222656 164.660156 L 121.34375 164.558594 L 115.710938 163.839844 C 112.640625 163.429688 110.898438 163.125 111.921875 163.019531 C 112.945312 162.917969 113.5625 162.40625 113.253906 161.996094 C 113.050781 161.585938 113.152344 160.5625 113.765625 159.742188 C 114.484375 158.515625 114.6875 158.617188 114.6875 160.152344 C 114.6875 161.996094 114.789062 161.996094 116.53125 160.050781 C 117.453125 158.925781 119.089844 157.796875 120.21875 157.390625 C 121.957031 156.671875 121.855469 156.570312 119.707031 154.523438 L 117.246094 152.472656 L 120.421875 154.007812 C 122.164062 154.828125 123.902344 155.339844 124.210938 154.929688 C 124.621094 154.625 124.722656 155.339844 124.414062 156.570312 C 124.210938 157.796875 124.519531 158.71875 125.335938 158.71875 C 126.363281 158.71875 129.023438 162.714844 129.023438 164.351562 C 129.023438 164.558594 127.386719 164.558594 125.335938 164.351562 C 123.085938 164.042969 121.957031 164.25 122.367188 164.863281 C 122.980469 165.886719 131.070312 166.296875 131.070312 165.273438 C 131.070312 164.964844 130.558594 163.839844 130.046875 162.714844 C 129.230469 161.175781 129.433594 160.257812 131.070312 158.515625 C 132.199219 157.285156 132.914062 155.648438 132.710938 154.929688 C 132.402344 154.214844 132.609375 153.601562 133.121094 153.601562 C 133.734375 153.601562 134.144531 154.007812 134.144531 154.625 C 134.144531 155.136719 134.859375 155.648438 135.78125 155.648438 C 136.601562 155.648438 137.113281 155.238281 136.804688 154.726562 C 136.398438 154.214844 136.5 153.601562 136.910156 153.292969 C 137.421875 153.089844 137.113281 153.089844 136.398438 153.292969 C 134.554688 153.703125 130.867188 151.65625 131.585938 150.527344 C 131.890625 150.117188 131.480469 149.402344 130.867188 149.09375 C 130.152344 148.789062 130.96875 148.890625 132.609375 149.195312 C 134.347656 149.503906 136.089844 150.324219 136.5 150.9375 C 137.011719 151.550781 137.113281 151.039062 136.804688 149.707031 C 135.269531 143.871094 135.371094 143.15625 137.011719 146.738281 C 138.546875 150.222656 139.265625 150.628906 144.691406 151.757812 C 147.867188 152.472656 150.527344 153.394531 150.527344 153.804688 C 150.527344 155.546875 154.625 154.523438 155.648438 152.574219 C 156.363281 151.246094 156.363281 150.527344 155.75 150.527344 C 155.136719 150.527344 154.417969 149.402344 154.007812 148.070312 C 153.703125 146.738281 152.679688 145.40625 151.65625 145.101562 C 150.015625 144.691406 143.667969 130.152344 143.972656 127.488281 C 144.078125 126.875 143.15625 126.257812 141.925781 126.15625 C 140.800781 126.15625 139.671875 125.542969 139.46875 124.929688 C 139.265625 124.414062 138.546875 123.902344 137.933594 123.902344 C 137.113281 123.902344 137.214844 124.3125 138.035156 125.132812 C 139.878906 126.976562 139.570312 127.898438 137.214844 127.28125 C 135.066406 126.667969 134.453125 124.414062 136.191406 123.390625 C 136.703125 123.085938 136.804688 122.0625 136.5 121.242188 C 136.089844 120.21875 136.703125 119.5 138.238281 119.089844 C 139.878906 118.679688 140.082031 118.273438 139.160156 117.65625 C 138.34375 117.144531 137.421875 117.351562 137.011719 118.066406 C 136.5 118.988281 135.988281 118.988281 134.964844 117.964844 C 134.042969 117.042969 134.042969 116.734375 135.371094 116.734375 C 138.855469 116.734375 141.105469 107.316406 138.136719 105.371094 C 137.320312 104.859375 137.320312 104.039062 138.238281 102.296875 C 139.367188 99.941406 139.265625 99.941406 137.726562 101.886719 C 136.191406 103.832031 135.988281 103.832031 132.8125 102.09375 C 129.433594 100.351562 122.46875 99.941406 123.496094 101.582031 Z M 136.089844 111.207031 C 133.222656 114.277344 132.503906 113.664062 134.144531 109.566406 C 135.167969 107.109375 135.679688 106.699219 136.910156 107.621094 C 138.035156 108.644531 137.933594 109.261719 136.089844 111.207031 Z M 137.933594 129.636719 C 138.238281 130.457031 137.933594 131.789062 137.214844 132.402344 C 136.191406 133.324219 136.089844 133.324219 136.601562 132.402344 C 136.910156 131.789062 136.804688 130.96875 136.191406 130.558594 C 134.859375 129.742188 134.859375 128 136.191406 128 C 136.804688 128 137.523438 128.714844 137.933594 129.636719 Z M 146.125 144.078125 C 145.921875 144.28125 144.382812 144.078125 142.644531 143.769531 C 139.265625 143.054688 138.957031 141.925781 140.492188 135.679688 L 141.515625 131.585938 L 143.972656 137.625 C 145.304688 141.003906 146.226562 143.871094 146.125 144.078125 Z M 135.371094 139.878906 C 135.066406 141.722656 134.65625 142.132812 134.042969 141.210938 C 133.632812 140.492188 133.734375 139.265625 134.347656 138.546875 C 135.886719 136.703125 135.988281 136.804688 135.371094 139.878906 Z M 118.273438 150.527344 C 118.578125 151.039062 118.375 151.550781 117.863281 151.550781 C 117.246094 151.550781 116.734375 151.039062 116.734375 150.527344 C 116.734375 149.914062 116.941406 149.503906 117.144531 149.503906 C 117.453125 149.503906 117.964844 149.914062 118.273438 150.527344 Z M 123.1875 150.9375 C 123.597656 151.960938 123.289062 152.269531 122.367188 151.859375 C 121.546875 151.550781 121.140625 150.9375 121.445312 150.425781 C 122.164062 149.195312 122.574219 149.300781 123.1875 150.9375 Z M 107.210938 173.671875 C 106.90625 173.976562 105.984375 174.078125 105.265625 173.773438 C 104.449219 173.464844 104.753906 173.160156 105.882812 173.160156 C 107.007812 173.054688 107.621094 173.363281 107.210938 173.671875 Z M 179.917969 199.269531 C 179.609375 199.578125 178.6875 199.679688 177.972656 199.371094 C 177.152344 199.066406 177.460938 198.757812 178.585938 198.757812 C 179.710938 198.65625 180.328125 198.964844 179.917969 199.269531 Z M 211.96875 201.320312 C 211.96875 202.753906 211.660156 202.753906 210.433594 201.726562 C 209.613281 201.011719 208.894531 200.292969 208.894531 200.089844 C 208.894531 199.886719 209.613281 199.679688 210.433594 199.679688 C 211.25 199.679688 211.96875 200.398438 211.96875 201.320312 Z M 211.96875 201.320312 "/>
<path style=" stroke:none;fill-rule:nonzero;fill:rgb(0%,0%,0%);fill-opacity:1;" d="M 114.996094 102.09375 C 116.53125 102.296875 118.785156 102.296875 120.113281 102.09375 C 121.34375 101.886719 120.113281 101.683594 117.246094 101.683594 C 114.484375 101.683594 113.355469 101.886719 114.996094 102.09375 Z M 114.996094 102.09375 "/>
<path style=" stroke:none;fill-rule:nonzero;fill:rgb(0%,0%,0%);fill-opacity:1;" d="M 106.292969 103.117188 C 107.007812 103.425781 107.929688 103.320312 108.238281 103.015625 C 108.644531 102.707031 108.03125 102.398438 106.90625 102.503906 C 105.777344 102.503906 105.472656 102.808594 106.292969 103.117188 Z M 106.292969 103.117188 "/>
<path style=" stroke:none;fill-rule:nonzero;fill:rgb(0%,0%,0%);fill-opacity:1;" d="M 128.613281 106.292969 C 128.308594 106.804688 128.71875 107.210938 129.535156 107.210938 C 130.355469 107.210938 130.765625 106.804688 130.457031 106.292969 C 130.152344 105.882812 129.742188 105.472656 129.535156 105.472656 C 129.332031 105.472656 128.921875 105.882812 128.613281 106.292969 Z M 128.613281 106.292969 "/>
<path style=" stroke:none;fill-rule:nonzero;fill:rgb(0%,0%,0%);fill-opacity:1;" d="M 365.363281 106.1875 C 365.976562 106.394531 367.207031 106.394531 367.921875 106.1875 C 368.539062 105.882812 368.027344 105.675781 366.59375 105.675781 C 365.160156 105.675781 364.644531 105.882812 365.363281 106.1875 Z M 365.363281 106.1875 "/>
<path style=" stroke:none;fill-rule:nonzero;fill:rgb(0%,0%,0%);fill-opacity:1;" d="M 381.746094 106.1875 C 382.464844 106.496094 383.386719 106.394531 383.691406 106.085938 C 384.101562 105.777344 383.488281 105.472656 382.363281 105.574219 C 381.234375 105.574219 380.929688 105.882812 381.746094 106.1875 Z M 381.746094 106.1875 "/>
<path style=" stroke:none;fill-rule:nonzero;fill:rgb(0%,0%,0%);fill-opacity:1;" d="M 396.082031 106.1875 C 396.699219 106.394531 397.925781 106.394531 398.644531 106.1875 C 399.257812 105.882812 398.746094 105.675781 397.3125 105.675781 C 395.878906 105.675781 395.367188 105.882812 396.082031 106.1875 Z M 396.082031 106.1875 "/>
<path style=" stroke:none;fill-rule:nonzero;fill:rgb(0%,0%,0%);fill-opacity:1;" d="M 392.5 109.875 C 393.832031 111 394.136719 112.332031 393.832031 115.300781 C 393.011719 121.652344 391.988281 157.183594 392.601562 156.570312 C 393.421875 155.851562 399.972656 126.054688 400.894531 119.195312 L 401.511719 113.972656 L 396.082031 111.207031 C 393.113281 109.671875 391.476562 109.160156 392.5 109.875 Z M 392.5 109.875 "/>
<path style=" stroke:none;fill-rule:nonzero;fill:rgb(0%,0%,0%);fill-opacity:1;" d="M 347.546875 111.820312 C 347.546875 113.152344 346.929688 124.3125 346.113281 136.703125 C 344.78125 159.128906 345.292969 181.246094 347.238281 181.246094 C 347.75 181.246094 348.160156 174.078125 348.160156 165.273438 C 348.160156 156.46875 348.671875 141.515625 349.285156 131.992188 C 350.308594 115.507812 350.105469 109.566406 348.363281 109.566406 C 347.957031 109.566406 347.648438 110.59375 347.546875 111.820312 Z M 347.546875 111.820312 "/>
<path style=" stroke:none;fill-rule:nonzero;fill:rgb(0%,0%,0%);fill-opacity:1;" d="M 374.988281 112.84375 C 373.144531 114.6875 373.453125 118.273438 375.601562 120.113281 C 378.367188 122.574219 378.878906 122.265625 378.878906 118.375 C 378.878906 112.332031 377.445312 110.386719 374.988281 112.84375 Z M 374.988281 112.84375 "/>
<path style=" stroke:none;fill-rule:nonzero;fill:rgb(0%,0%,0%);fill-opacity:1;" d="M 336.078125 116.222656 C 334.335938 118.167969 332.59375 121.445312 332.1875 123.597656 C 331.367188 127.796875 332.390625 168.140625 333.414062 174.285156 C 333.925781 176.945312 334.644531 178.175781 335.769531 178.175781 C 337.304688 178.175781 337.613281 175.105469 338.839844 150.222656 C 339.558594 134.964844 340.378906 120.21875 340.683594 117.453125 C 341.402344 111.617188 340.273438 111.308594 336.078125 116.222656 Z M 336.078125 116.222656 "/>
<path style=" stroke:none;fill-rule:nonzero;fill:rgb(0%,0%,0%);fill-opacity:1;" d="M 205.3125 114.996094 C 206.4375 115.609375 208.691406 117.554688 210.328125 119.296875 L 213.300781 122.367188 L 209.816406 115.609375 L 212.683594 116.222656 C 214.9375 116.632812 215.140625 116.632812 213.503906 115.917969 C 212.378906 115.40625 209.613281 114.6875 207.359375 114.277344 C 203.878906 113.765625 203.570312 113.867188 205.3125 114.996094 Z M 205.3125 114.996094 "/>
<path style=" stroke:none;fill-rule:nonzero;fill:rgb(0%,0%,0%);fill-opacity:1;" d="M 403.25 114.378906 C 403.96875 114.6875 404.890625 114.585938 405.195312 114.277344 C 405.605469 113.972656 404.992188 113.664062 403.867188 113.765625 C 402.738281 113.765625 402.433594 114.074219 403.25 114.378906 Z M 403.25 114.378906 "/>
<path style=" stroke:none;fill-rule:nonzero;fill:rgb(0%,0%,0%);fill-opacity:1;" d="M 407.347656 115.40625 C 409.191406 116.121094 408.882812 125.542969 406.015625 159.742188 C 403.046875 195.277344 403.148438 191.488281 404.789062 191.488281 C 405.8125 191.488281 406.734375 186.265625 408.371094 171.210938 C 411.035156 147.558594 413.082031 118.273438 412.261719 116.121094 C 411.957031 115.300781 410.417969 114.6875 408.882812 114.789062 C 407.347656 114.789062 406.628906 115.097656 407.347656 115.40625 Z M 407.347656 115.40625 "/>
<path style=" stroke:none;fill-rule:nonzero;fill:rgb(0%,0%,0%);fill-opacity:1;" d="M 208.894531 131.992188 C 208.894531 132.8125 208.179688 133.019531 206.847656 132.609375 C 205.722656 132.199219 204.800781 132.402344 204.800781 133.019531 C 204.800781 133.632812 204.902344 134.144531 205.105469 134.144531 C 205.210938 134.144531 206.847656 134.554688 208.691406 135.066406 C 211.867188 135.988281 211.96875 135.988281 210.839844 133.835938 C 209.203125 130.867188 208.894531 130.457031 208.894531 131.992188 Z M 208.894531 131.992188 "/>
<path style=" stroke:none;fill-rule:nonzero;fill:rgb(0%,0%,0%);fill-opacity:1;" d="M 226.917969 146.738281 C 227.226562 147.761719 227.839844 148.273438 228.148438 147.96875 C 228.453125 147.660156 228.148438 146.839844 227.429688 146.125 C 226.40625 145.203125 226.304688 145.304688 226.917969 146.738281 Z M 226.917969 146.738281 "/>
<path style=" stroke:none;fill-rule:nonzero;fill:rgb(0%,0%,0%);fill-opacity:1;" d="M 133.121094 158.105469 C 133.121094 158.925781 133.53125 159.847656 134.042969 160.257812 C 134.65625 160.5625 134.964844 159.847656 134.859375 158.71875 C 134.757812 156.363281 133.121094 155.851562 133.121094 158.105469 Z M 133.121094 158.105469 "/>
<path style=" stroke:none;fill-rule:nonzero;fill:rgb(0%,0%,0%);fill-opacity:1;" d="M 147.558594 159.539062 C 146.535156 161.382812 146.636719 161.894531 147.96875 162.40625 C 148.890625 162.816406 149.914062 162.816406 150.222656 162.40625 C 150.527344 162.097656 151.449219 162.304688 152.269531 162.917969 C 152.984375 163.53125 153.601562 163.839844 153.601562 163.53125 C 153.601562 163.226562 155.75 163.53125 158.515625 164.351562 C 164.761719 166.296875 164.558594 166.296875 165.070312 163.328125 C 165.476562 161.484375 165.171875 160.769531 164.042969 160.769531 C 163.125 160.769531 162.714844 161.484375 163.125 162.816406 C 163.429688 163.941406 163.226562 164.660156 162.714844 164.25 C 162.203125 163.941406 161.792969 163.019531 161.792969 162.203125 C 161.792969 160.871094 161.175781 160.664062 156.671875 160.257812 C 155.851562 160.257812 154.625 159.847656 153.90625 159.4375 C 153.292969 159.027344 152.371094 159.230469 152.0625 159.742188 C 151.550781 160.460938 150.9375 160.257812 150.015625 159.128906 C 148.789062 157.492188 148.683594 157.492188 147.558594 159.539062 Z M 147.558594 159.539062 "/>
<path style=" stroke:none;fill-rule:nonzero;fill:rgb(0%,0%,0%);fill-opacity:1;" d="M 222.207031 159.4375 C 222.207031 160.152344 220.980469 160.769531 219.441406 160.871094 C 216.574219 160.972656 216.574219 160.972656 220.058594 162.40625 C 224.460938 164.351562 225.484375 163.941406 223.742188 160.769531 C 222.925781 159.335938 222.308594 158.824219 222.207031 159.4375 Z M 222.207031 159.4375 "/>
<path style=" stroke:none;fill-rule:nonzero;fill:rgb(0%,0%,0%);fill-opacity:1;" d="M 236.644531 162.816406 C 238.078125 165.992188 238.59375 166.503906 238.59375 165.273438 C 238.59375 164.660156 237.875 163.328125 236.953125 162.203125 C 235.519531 160.359375 235.519531 160.359375 236.644531 162.816406 Z M 236.644531 162.816406 "/>
<path style=" stroke:none;fill-rule:nonzero;fill:rgb(0%,0%,0%);fill-opacity:1;" d="M 133.9375 166.605469 C 134.554688 166.808594 135.78125 166.808594 136.5 166.605469 C 137.113281 166.296875 136.601562 166.09375 135.167969 166.09375 C 133.734375 166.09375 133.222656 166.296875 133.9375 166.605469 Z M 133.9375 166.605469 "/>
<path style=" stroke:none;fill-rule:nonzero;fill:rgb(0%,0%,0%);fill-opacity:1;" d="M 116.429688 168.753906 C 115.40625 168.960938 114.789062 169.675781 114.996094 170.292969 C 115.300781 171.007812 116.019531 171.417969 116.632812 171.210938 C 117.246094 171.109375 117.761719 171.417969 117.761719 172.03125 C 117.761719 172.542969 119.195312 173.054688 120.832031 173.054688 C 122.878906 173.054688 123.902344 172.542969 123.902344 171.519531 C 123.902344 170.597656 122.980469 169.984375 121.445312 169.984375 C 120.113281 169.984375 118.785156 169.574219 118.578125 169.164062 C 118.476562 168.753906 117.453125 168.550781 116.429688 168.753906 Z M 116.429688 168.753906 "/>
<path style=" stroke:none;fill-rule:nonzero;fill:rgb(0%,0%,0%);fill-opacity:1;" d="M 124.929688 170.394531 C 124.929688 170.597656 125.644531 171.007812 126.464844 171.417969 C 127.28125 171.726562 128 171.519531 128 171.007812 C 128 170.394531 127.28125 169.984375 126.464844 169.984375 C 125.644531 169.984375 124.929688 170.1875 124.929688 170.394531 Z M 124.929688 170.394531 "/>
<path style=" stroke:none;fill-rule:nonzero;fill:rgb(0%,0%,0%);fill-opacity:1;" d="M 216.679688 197.324219 C 216.269531 198.964844 215.757812 201.113281 215.347656 202.238281 C 215.039062 203.570312 215.140625 203.980469 215.859375 203.265625 C 216.882812 202.238281 218.523438 194.558594 217.804688 194.558594 C 217.496094 194.558594 216.984375 195.789062 216.679688 197.324219 Z M 216.679688 197.324219 "/>
<path style=" stroke:none;fill-rule:nonzero;fill:rgb(0%,0%,0%);fill-opacity:1;" d="M 198.65625 197.632812 C 198.65625 198.144531 199.371094 198.65625 200.191406 198.65625 C 201.011719 198.65625 201.726562 198.144531 201.726562 197.632812 C 201.726562 197.019531 201.011719 196.609375 200.191406 196.609375 C 199.371094 196.609375 198.65625 197.019531 198.65625 197.632812 Z M 198.65625 197.632812 "/>
<path style=" stroke:none;fill-rule:nonzero;fill:rgb(0%,0%,0%);fill-opacity:1;" d="M 300.03125 216.679688 C 300.03125 219.851562 302.386719 219.546875 302.898438 216.269531 C 303.105469 214.734375 302.695312 214.015625 301.671875 214.015625 C 300.542969 214.015625 300.03125 214.9375 300.03125 216.679688 Z M 300.03125 216.679688 "/>
<path style=" stroke:none;fill-rule:nonzero;fill:rgb(0%,0%,0%);fill-opacity:1;" d="M 306.894531 216.472656 C 306.277344 218.113281 308.53125 220.570312 309.554688 219.441406 C 309.964844 219.136719 310.273438 217.90625 310.273438 216.882812 C 310.273438 214.734375 307.710938 214.425781 306.894531 216.472656 Z M 306.894531 216.472656 "/>
<path style=" stroke:none;fill-rule:nonzero;fill:rgb(0%,0%,0%);fill-opacity:1;" d="M 314.574219 217.292969 C 312.730469 219.136719 313.140625 221.183594 315.390625 221.183594 C 316.929688 221.183594 317.441406 220.46875 317.441406 218.625 C 317.441406 215.859375 316.519531 215.347656 314.574219 217.292969 Z M 314.574219 217.292969 "/>
<path style=" stroke:none;fill-rule:nonzero;fill:rgb(0%,0%,0%);fill-opacity:1;" d="M 320.820312 219.75 C 320.101562 221.59375 321.945312 223.742188 323.480469 222.824219 C 325.222656 221.695312 324.8125 218.113281 323.070312 218.113281 C 322.152344 218.113281 321.230469 218.828125 320.820312 219.75 Z M 320.820312 219.75 "/>
<path style=" stroke:none;fill-rule:nonzero;fill:rgb(0%,0%,0%);fill-opacity:1;" d="M 244.734375 219.546875 C 244.734375 219.75 245.453125 220.160156 246.273438 220.570312 C 247.089844 220.875 247.808594 220.671875 247.808594 220.160156 C 247.808594 219.546875 247.089844 219.136719 246.273438 219.136719 C 245.453125 219.136719 244.734375 219.339844 244.734375 219.546875 Z M 244.734375 219.546875 "/>
<path style=" stroke:none;fill-rule:nonzero;fill:rgb(0%,0%,0%);fill-opacity:1;" d="M 249.34375 222.207031 C 249.652344 222.71875 250.46875 223.230469 250.980469 223.230469 C 251.597656 223.230469 251.699219 222.71875 251.390625 222.207031 C 251.085938 221.59375 250.265625 221.183594 249.753906 221.183594 C 249.140625 221.183594 249.035156 221.59375 249.34375 222.207031 Z M 249.34375 222.207031 "/>
<path style=" stroke:none;fill-rule:nonzero;fill:rgb(0%,0%,0%);fill-opacity:1;" d="M 412.875 228.042969 C 413.082031 229.070312 414.308594 230.09375 415.640625 230.195312 C 417.585938 230.503906 417.894531 230.195312 417.382812 228.863281 C 417.074219 227.941406 416.769531 226.917969 416.769531 226.714844 C 416.769531 226.507812 415.847656 226.304688 414.617188 226.304688 C 413.183594 226.304688 412.671875 226.816406 412.875 228.042969 Z M 412.875 228.042969 "/>
<path style=" stroke:none;fill-rule:nonzero;fill:rgb(0%,0%,0%);fill-opacity:1;" d="M 294.707031 231.015625 C 295.21875 235.210938 296.039062 234.90625 296.550781 230.398438 C 296.753906 228.453125 296.449219 227.328125 295.628906 227.328125 C 294.707031 227.328125 294.398438 228.453125 294.707031 231.015625 Z M 294.707031 231.015625 "/>
<path style=" stroke:none;fill-rule:nonzero;fill:rgb(0%,0%,0%);fill-opacity:1;" d="M 317.542969 228.042969 C 317.953125 230.707031 317.335938 231.628906 316.007812 230.503906 C 315.289062 229.886719 311.910156 229.171875 308.53125 228.863281 C 302.796875 228.351562 302.285156 228.558594 301.671875 230.707031 C 300.441406 235.210938 300.851562 236.339844 303.617188 235.726562 C 305.972656 235.316406 306.074219 235.210938 304.433594 233.984375 C 303 232.859375 303.410156 232.859375 307.199219 233.882812 C 309.761719 234.496094 312.320312 235.417969 313.035156 235.828125 C 313.652344 236.238281 314.46875 236.132812 314.878906 235.621094 C 315.1875 235.007812 316.621094 235.007812 318.769531 235.621094 C 320.511719 236.238281 322.664062 236.953125 323.378906 237.160156 C 324.097656 237.363281 324.503906 237.976562 324.097656 238.488281 C 323.789062 239.105469 322.355469 238.898438 320.71875 237.976562 C 319.179688 237.261719 317.234375 236.542969 316.414062 236.644531 C 315.496094 236.644531 315.800781 237.160156 317.234375 237.773438 C 318.464844 238.386719 319.488281 239.308594 319.488281 239.71875 C 319.488281 240.230469 320.511719 241.460938 321.742188 242.585938 L 323.890625 244.734375 L 318.769531 249.546875 C 315.902344 252.3125 312.011719 256.613281 309.964844 259.277344 C 308.019531 261.9375 306.074219 263.78125 305.765625 263.476562 C 305.460938 263.066406 305.152344 263.578125 305.152344 264.5 C 305.152344 265.523438 304.84375 266.238281 304.433594 266.238281 C 303.105469 266.34375 293.273438 275.457031 294.398438 275.457031 C 295.015625 275.457031 302.285156 269.210938 310.679688 261.632812 C 319.078125 254.054688 326.554688 247.808594 327.269531 247.808594 C 328.191406 247.808594 328.601562 245.863281 328.5 240.84375 C 328.292969 232.039062 327.476562 230.195312 323.585938 230.910156 C 321.332031 231.320312 320.511719 231.015625 320 229.375 C 319.386719 227.429688 317.335938 226.40625 317.542969 228.042969 Z M 317.542969 228.042969 "/>
<path style=" stroke:none;fill-rule:nonzero;fill:rgb(0%,0%,0%);fill-opacity:1;" d="M 347.957031 230.910156 C 347.136719 232.242188 346.929688 235.726562 347.035156 243.40625 C 347.136719 249.242188 347.339844 249.855469 349.285156 249.855469 C 351.230469 249.855469 351.335938 249.445312 350.617188 242.378906 C 349.796875 233.777344 348.773438 229.582031 347.957031 230.910156 Z M 347.957031 230.910156 "/>
<path style=" stroke:none;fill-rule:nonzero;fill:rgb(0%,0%,0%);fill-opacity:1;" d="M 472.167969 231.832031 C 471.246094 232.960938 471.347656 234.085938 472.78125 236.953125 C 474.726562 241.050781 475.339844 241.355469 477.183594 239.105469 C 478.308594 237.773438 478.207031 236.851562 476.875 233.984375 C 475.035156 230.09375 474.007812 229.582031 472.167969 231.832031 Z M 472.167969 231.832031 "/>
<path style=" stroke:none;fill-rule:nonzero;fill:rgb(0%,0%,0%);fill-opacity:1;" d="M 412.671875 236.75 C 412.773438 239.921875 412.773438 240.027344 414.207031 238.078125 C 415.949219 235.929688 415.742188 234.292969 413.902344 233.675781 C 413.082031 233.472656 412.671875 234.496094 412.671875 236.75 Z M 412.671875 236.75 "/>
<path style=" stroke:none;fill-rule:nonzero;fill:rgb(0%,0%,0%);fill-opacity:1;" d="M 466.636719 234.699219 C 465.304688 235.726562 464.792969 237.160156 465.101562 239.71875 C 465.40625 243.300781 465.511719 243.300781 468.789062 242.484375 C 472.574219 241.460938 473.089844 239.105469 470.324219 235.621094 C 468.683594 233.675781 468.273438 233.574219 466.636719 234.699219 Z M 466.636719 234.699219 "/>
<path style=" stroke:none;fill-rule:nonzero;fill:rgb(0%,0%,0%);fill-opacity:1;" d="M 428.03125 235.929688 C 428.03125 236.851562 428.75 237.566406 429.671875 237.566406 C 430.59375 237.566406 431.105469 237.054688 430.898438 236.339844 C 430.285156 234.496094 428.03125 234.1875 428.03125 235.929688 Z M 428.03125 235.929688 "/>
<path style=" stroke:none;fill-rule:nonzero;fill:rgb(0%,0%,0%);fill-opacity:1;" d="M 459.367188 235.726562 C 459.058594 236.441406 458.648438 238.59375 458.34375 240.332031 C 457.832031 243.507812 457.933594 243.710938 460.800781 243.710938 C 463.769531 243.710938 463.871094 243.507812 463.871094 239.105469 C 463.871094 235.109375 463.566406 234.496094 461.824219 234.496094 C 460.699219 234.496094 459.570312 235.109375 459.367188 235.726562 Z M 459.367188 235.726562 "/>
<path style=" stroke:none;fill-rule:nonzero;fill:rgb(0%,0%,0%);fill-opacity:1;" d="M 423.425781 240.742188 C 423.015625 242.6875 422.195312 243.710938 421.375 243.300781 C 420.660156 243.097656 419.636719 243.300781 419.125 243.8125 C 418.507812 244.429688 417.074219 244.429688 415.335938 243.710938 C 413.59375 243.097656 412.773438 243.097656 413.183594 243.710938 C 413.492188 244.222656 413.390625 245.554688 412.773438 246.476562 C 412.261719 247.5 411.648438 251.085938 411.441406 254.464844 L 411.136719 260.609375 L 418.304688 261.632812 C 425.164062 262.65625 425.472656 262.757812 425.265625 265.421875 C 425.164062 267.265625 425.675781 268.1875 426.90625 268.59375 C 427.929688 268.800781 429.054688 270.335938 429.363281 272.179688 C 430.59375 278.015625 438.375 277.8125 439.089844 271.972656 L 439.398438 269.210938 L 446.464844 269.824219 C 453.324219 270.4375 453.53125 270.4375 454.144531 267.980469 C 454.757812 265.523438 455.167969 265.523438 466.738281 264.910156 C 478.414062 264.398438 482.304688 263.78125 482.304688 262.246094 C 482.304688 261.835938 480.871094 261.53125 479.027344 261.632812 C 474.625 261.9375 462.644531 257.023438 463.257812 255.28125 C 463.972656 253.644531 463.359375 253.644531 460.902344 255.179688 C 459.777344 255.796875 458.238281 256 457.113281 255.488281 C 455.988281 255.078125 454.554688 254.769531 453.734375 254.875 C 453.019531 254.976562 452.710938 254.667969 453.019531 254.054688 C 453.9375 252.621094 450.253906 250.777344 445.132812 250.265625 C 442.777344 250.0625 439.601562 249.652344 438.066406 249.445312 C 436.53125 249.242188 435.40625 249.34375 435.507812 249.652344 C 435.609375 250.0625 435.300781 250.46875 434.6875 250.574219 C 433.050781 251.085938 433.460938 248.421875 435.199219 247.601562 C 436.53125 246.988281 436.53125 246.886719 435.097656 246.886719 C 433.664062 246.785156 433.460938 246.167969 434.277344 242.894531 C 435.710938 236.851562 435.199219 236.644531 433.152344 242.484375 C 430.796875 248.933594 429.566406 250.265625 425.472656 250.574219 C 423.832031 250.675781 423.117188 250.574219 423.9375 250.164062 C 427.519531 248.730469 428.132812 247.601562 426.085938 246.066406 C 424.449219 245.042969 424.242188 243.917969 424.652344 241.152344 C 425.371094 236.75 424.34375 236.339844 423.425781 240.742188 Z M 423.425781 240.742188 "/>
<path style=" stroke:none;fill-rule:nonzero;fill:rgb(0%,0%,0%);fill-opacity:1;" d="M 283.136719 242.894531 C 279.757812 244.429688 276.070312 245.761719 274.839844 245.761719 C 271.359375 245.761719 271.257812 246.886719 274.636719 249.652344 C 276.273438 251.085938 279.039062 254.363281 280.574219 256.820312 L 283.441406 261.425781 L 286.105469 256.101562 C 288.769531 250.980469 288.769531 250.777344 286.71875 251.902344 C 285.492188 252.519531 284.261719 252.824219 283.851562 252.519531 C 283.546875 252.210938 283.851562 251.902344 284.46875 251.902344 C 286.414062 251.902344 291.839844 246.679688 291.839844 244.632812 C 291.839844 243.609375 291.429688 242.6875 290.917969 242.6875 C 290.40625 242.6875 289.792969 242.074219 289.585938 241.355469 C 289.382812 240.230469 287.742188 240.640625 283.136719 242.894531 Z M 283.136719 242.894531 "/>
<path style=" stroke:none;fill-rule:nonzero;fill:rgb(0%,0%,0%);fill-opacity:1;" d="M 426.085938 244.328125 C 426.085938 245.453125 426.394531 245.761719 426.699219 244.941406 C 427.007812 244.222656 426.90625 243.300781 426.597656 242.996094 C 426.292969 242.585938 425.984375 243.199219 426.085938 244.328125 Z M 426.085938 244.328125 "/>
<path style=" stroke:none;fill-rule:nonzero;fill:rgb(0%,0%,0%);fill-opacity:1;" d="M 294.808594 244.429688 C 293.375 244.734375 292.25 246.375 289.996094 251.1875 C 289.175781 253.03125 295.9375 248.730469 296.960938 246.886719 C 298.597656 243.609375 298.496094 243.40625 294.808594 244.429688 Z M 294.808594 244.429688 "/>
<path style=" stroke:none;fill-rule:nonzero;fill:rgb(0%,0%,0%);fill-opacity:1;" d="M 428.644531 246.273438 C 429.054688 247.089844 429.464844 247.808594 429.671875 247.808594 C 429.875 247.808594 430.078125 247.089844 430.078125 246.273438 C 430.078125 245.453125 429.671875 244.734375 429.054688 244.734375 C 428.542969 244.734375 428.339844 245.453125 428.644531 246.273438 Z M 428.644531 246.273438 "/>
<path style=" stroke:none;fill-rule:nonzero;fill:rgb(0%,0%,0%);fill-opacity:1;" d="M 264.191406 248.113281 C 264.191406 249.34375 270.335938 254.976562 271.667969 254.976562 C 274.226562 254.976562 273.714844 253.441406 270.234375 250.46875 C 267.570312 248.21875 264.191406 246.886719 264.191406 248.113281 Z M 264.191406 248.113281 "/>
<path style=" stroke:none;fill-rule:nonzero;fill:rgb(0%,0%,0%);fill-opacity:1;" d="M 389.425781 252.414062 C 389.425781 255.179688 389.632812 256.308594 389.835938 254.667969 C 390.042969 253.132812 390.042969 250.878906 389.835938 249.546875 C 389.632812 248.320312 389.425781 249.546875 389.425781 252.414062 Z M 389.425781 252.414062 "/>
<path style=" stroke:none;fill-rule:nonzero;fill:rgb(0%,0%,0%);fill-opacity:1;" d="M 468.890625 252.519531 C 467.96875 253.746094 467.96875 254.566406 468.992188 256.511719 C 470.015625 258.457031 470.628906 258.765625 472.167969 257.742188 C 473.191406 257.125 473.703125 256.203125 473.496094 255.796875 C 473.191406 255.386719 473.496094 254.976562 474.007812 254.976562 C 474.625 254.976562 475.136719 253.953125 475.035156 252.621094 C 475.035156 250.46875 474.929688 250.46875 474.113281 252.414062 C 473.601562 253.542969 473.191406 253.953125 473.191406 253.335938 C 473.089844 251.390625 470.222656 250.878906 468.890625 252.519531 Z M 468.890625 252.519531 "/>
<path style=" stroke:none;fill-rule:nonzero;fill:rgb(0%,0%,0%);fill-opacity:1;" d="M 253.441406 256.714844 C 256.308594 259.585938 258.765625 261.734375 258.96875 261.53125 C 259.585938 260.914062 252.824219 254.054688 250.367188 252.722656 C 249.242188 252.109375 250.675781 253.953125 253.441406 256.714844 Z M 253.441406 256.714844 "/>
<path style=" stroke:none;fill-rule:nonzero;fill:rgb(0%,0%,0%);fill-opacity:1;" d="M 267.878906 258.355469 C 268.1875 259.378906 268.800781 259.890625 269.105469 259.585938 C 269.414062 259.277344 269.105469 258.457031 268.390625 257.742188 C 267.367188 256.820312 267.265625 256.921875 267.878906 258.355469 Z M 267.878906 258.355469 "/>
<path style=" stroke:none;fill-rule:nonzero;fill:rgb(0%,0%,0%);fill-opacity:1;" d="M 347.238281 266.035156 C 347.441406 281.394531 348.46875 288.152344 350.515625 288.5625 C 352.152344 288.871094 352.257812 287.640625 352.257812 274.023438 C 352.257812 259.175781 351.949219 257.945312 348.46875 257.433594 C 347.441406 257.230469 347.136719 259.480469 347.238281 266.035156 Z M 347.238281 266.035156 "/>
<path style=" stroke:none;fill-rule:nonzero;fill:rgb(0%,0%,0%);fill-opacity:1;" d="M 270.335938 264.601562 C 270.335938 266.753906 271.972656 267.46875 273.304688 265.832031 C 274.226562 264.703125 274.125 264.292969 272.792969 263.78125 C 270.539062 262.964844 270.335938 262.964844 270.335938 264.601562 Z M 270.335938 264.601562 "/>
<path style=" stroke:none;fill-rule:nonzero;fill:rgb(0%,0%,0%);fill-opacity:1;" d="M 387.6875 266.957031 C 386.457031 274.945312 387.070312 315.699219 388.609375 322.046875 C 390.554688 329.933594 390.453125 330.546875 388.402344 331.160156 C 386.96875 331.570312 386.96875 331.570312 388.609375 331.46875 C 390.554688 331.265625 390.65625 330.34375 390.964844 297.164062 C 391.167969 268.800781 390.964844 263.167969 389.734375 263.167969 C 388.914062 263.167969 388.097656 264.703125 387.6875 266.957031 Z M 387.6875 266.957031 "/>
<path style=" stroke:none;fill-rule:nonzero;fill:rgb(0%,0%,0%);fill-opacity:1;" d="M 339.25 270.847656 C 339.25 274.738281 339.457031 276.273438 339.660156 274.125 C 339.867188 272.078125 339.867188 268.800781 339.660156 266.957031 C 339.457031 265.214844 339.25 266.855469 339.25 270.847656 Z M 339.25 270.847656 "/>
<path style=" stroke:none;fill-rule:nonzero;fill:rgb(0%,0%,0%);fill-opacity:1;" d="M 399.667969 272.894531 C 399.667969 276.789062 399.871094 278.324219 400.078125 276.171875 C 400.28125 274.125 400.28125 270.847656 400.078125 269.003906 C 399.871094 267.265625 399.667969 268.902344 399.667969 272.894531 Z M 399.667969 272.894531 "/>
<path style=" stroke:none;fill-rule:nonzero;fill:rgb(0%,0%,0%);fill-opacity:1;" d="M 279.347656 272.078125 C 280.0625 272.382812 280.984375 272.28125 281.292969 271.972656 C 281.703125 271.667969 281.089844 271.359375 279.960938 271.460938 C 278.835938 271.460938 278.527344 271.769531 279.347656 272.078125 Z M 279.347656 272.078125 "/>
<path style=" stroke:none;fill-rule:nonzero;fill:rgb(0%,0%,0%);fill-opacity:1;" d="M 266.648438 274.535156 C 264.910156 276.480469 264.910156 276.683594 268.492188 280.269531 C 271.972656 283.648438 272.382812 283.851562 275.457031 282.726562 C 277.300781 282.113281 282.007812 281.601562 285.796875 281.601562 C 289.691406 281.601562 292.863281 281.191406 292.863281 280.679688 C 292.863281 279.039062 287.640625 275.457031 283.75 274.535156 C 281.703125 274.023438 277.402344 273.40625 274.226562 273.101562 C 269.414062 272.589844 268.1875 272.894531 266.648438 274.535156 Z M 266.648438 274.535156 "/>
<path style=" stroke:none;fill-rule:nonzero;fill:rgb(0%,0%,0%);fill-opacity:1;" d="M 292.863281 278.324219 C 292.863281 279.550781 294.808594 280.984375 295.527344 280.269531 C 295.730469 280.0625 295.320312 279.246094 294.398438 278.527344 C 293.476562 277.707031 292.863281 277.707031 292.863281 278.324219 Z M 292.863281 278.324219 "/>
<path style=" stroke:none;fill-rule:nonzero;fill:rgb(0%,0%,0%);fill-opacity:1;" d="M 365.261719 290.097656 C 364.75 294.503906 364.644531 298.394531 364.851562 298.699219 C 365.773438 299.621094 366.695312 292.558594 366.386719 287.230469 C 366.078125 282.417969 365.976562 282.625 365.261719 290.097656 Z M 365.261719 290.097656 "/>
<path style=" stroke:none;fill-rule:nonzero;fill:rgb(0%,0%,0%);fill-opacity:1;" d="M 398.644531 301.054688 C 398.644531 305.253906 398.847656 306.996094 399.054688 304.84375 C 399.257812 302.796875 399.257812 299.316406 399.054688 297.164062 C 398.847656 295.117188 398.644531 296.859375 398.644531 301.054688 Z M 398.644531 301.054688 "/>
<path style=" stroke:none;fill-rule:nonzero;fill:rgb(0%,0%,0%);fill-opacity:1;" d="M 327.679688 298.1875 C 329.625 300.238281 331.46875 301.671875 331.671875 301.464844 C 332.289062 300.851562 330.648438 299.109375 327.371094 296.859375 L 324.097656 294.605469 Z M 327.679688 298.1875 "/>
<path style=" stroke:none;fill-rule:nonzero;fill:rgb(0%,0%,0%);fill-opacity:1;" d="M 397.621094 323.585938 C 397.621094 326.144531 397.824219 327.167969 398.027344 325.835938 C 398.234375 324.609375 398.234375 322.558594 398.027344 321.230469 C 397.824219 320 397.621094 321.023438 397.621094 323.585938 Z M 397.621094 323.585938 "/>
<path style=" stroke:none;fill-rule:nonzero;fill:rgb(0%,0%,0%);fill-opacity:1;" d="M 355.839844 326.246094 C 355.125 330.136719 355.53125 331.058594 357.886719 331.367188 C 359.527344 331.570312 359.832031 328.910156 358.808594 324.8125 C 357.886719 321.433594 356.660156 322.046875 355.839844 326.246094 Z M 355.839844 326.246094 "/>
<path style=" stroke:none;fill-rule:nonzero;fill:rgb(0%,0%,0%);fill-opacity:1;" d="M 331.777344 324.609375 C 331.777344 325.121094 332.492188 325.632812 333.414062 325.632812 C 334.234375 325.632812 334.644531 325.121094 334.335938 324.609375 C 334.027344 323.992188 333.3125 323.585938 332.699219 323.585938 C 332.1875 323.585938 331.777344 323.992188 331.777344 324.609375 Z M 331.777344 324.609375 "/>
<path style=" stroke:none;fill-rule:nonzero;fill:rgb(0%,0%,0%);fill-opacity:1;" d="M 394.753906 329.726562 C 393.113281 330.445312 393.011719 330.648438 394.445312 330.648438 C 395.367188 330.753906 396.492188 330.238281 396.800781 329.726562 C 397.515625 328.601562 397.515625 328.601562 394.753906 329.726562 Z M 394.753906 329.726562 "/>
<path style=" stroke:none;fill-rule:nonzero;fill:rgb(0%,0%,0%);fill-opacity:1;" d="M 380.722656 332.492188 C 381.441406 332.800781 382.363281 332.699219 382.667969 332.390625 C 383.078125 332.082031 382.464844 331.777344 381.335938 331.878906 C 380.210938 331.878906 379.902344 332.1875 380.722656 332.492188 Z M 380.722656 332.492188 "/>
<path style=" stroke:none;fill-rule:nonzero;fill:rgb(0%,0%,0%);fill-opacity:1;" d="M 369.664062 333.925781 C 369.664062 334.4375 370.175781 334.644531 370.6875 334.335938 C 371.300781 334.027344 371.710938 333.515625 371.710938 333.210938 C 371.710938 333.003906 371.300781 332.800781 370.6875 332.800781 C 370.175781 332.800781 369.664062 333.3125 369.664062 333.925781 Z M 369.664062 333.925781 "/>
<path style=" stroke:none;fill-rule:nonzero;fill:rgb(0%,0%,0%);fill-opacity:1;" d="M 330.753906 337.40625 C 327.78125 340.582031 329.011719 342.628906 332.902344 341.09375 C 334.234375 340.582031 334.746094 340.070312 333.925781 340.070312 C 333.003906 339.96875 332.699219 339.148438 333.003906 337.40625 C 333.3125 335.972656 333.414062 334.847656 333.3125 334.847656 C 333.210938 334.847656 332.082031 335.972656 330.753906 337.40625 Z M 330.753906 337.40625 "/>
<path style=" stroke:none;fill-rule:nonzero;fill:rgb(0%,0%,0%);fill-opacity:1;" d="M 347.648438 348.160156 C 347.339844 348.671875 347.75 349.183594 348.570312 349.183594 C 349.492188 349.183594 350.207031 348.671875 350.207031 348.160156 C 350.207031 347.546875 349.796875 347.136719 349.285156 347.136719 C 348.671875 347.136719 347.957031 347.546875 347.648438 348.160156 Z M 347.648438 348.160156 "/>
<path style=" stroke:none;fill-rule:nonzero;fill:rgb(0%,0%,0%);fill-opacity:1;" d="M 352.050781 348.980469 C 348.980469 350.824219 347.75 352.871094 349.183594 353.792969 C 350.105469 354.40625 356.351562 349.492188 356.351562 348.058594 C 356.351562 346.828125 355.328125 347.035156 352.050781 348.980469 Z M 352.050781 348.980469 "/>
<path style=" stroke:none;fill-rule:nonzero;fill:rgb(0%,0%,0%);fill-opacity:1;" d="M 359.015625 351.847656 C 357.992188 354.40625 359.117188 354.816406 360.449219 352.359375 C 361.0625 351.128906 361.164062 350.207031 360.550781 350.207031 C 360.039062 350.207031 359.320312 350.925781 359.015625 351.847656 Z M 359.015625 351.847656 "/>
<path style=" stroke:none;fill-rule:nonzero;fill:rgb(0%,0%,0%);fill-opacity:1;" d="M 71.886719 248.730469 C 69.222656 253.441406 68.8125 261.222656 71.167969 263.167969 C 72.5 264.292969 72.703125 263.78125 72.703125 259.175781 C 72.703125 256.308594 73.320312 252.3125 74.136719 250.46875 C 76.289062 245.351562 74.546875 244.019531 71.886719 248.730469 Z M 71.886719 248.730469 "/>
<path style=" stroke:none;fill-rule:nonzero;fill:rgb(0%,0%,0%);fill-opacity:1;" d="M 72.5 271.972656 C 71.988281 272.382812 71.679688 273.921875 71.679688 275.355469 C 71.679688 277.195312 71.988281 277.605469 72.804688 276.789062 C 73.421875 276.171875 73.726562 274.636719 73.523438 273.40625 C 73.421875 272.179688 72.910156 271.566406 72.5 271.972656 Z M 72.5 271.972656 "/>
<path style=" stroke:none;fill-rule:nonzero;fill:rgb(0%,0%,0%);fill-opacity:1;" d="M 73.523438 288.769531 C 69.53125 291.839844 67.480469 297.265625 66.558594 307.300781 C 65.742188 316.210938 66.558594 322.558594 68.609375 322.558594 C 70.042969 322.558594 70.65625 319.386719 71.066406 308.839844 C 71.269531 303 71.886719 298.394531 72.601562 297.675781 C 73.523438 296.753906 73.832031 297.882812 73.625 302.59375 C 73.421875 309.042969 76.082031 320.511719 77.824219 320.511719 C 78.4375 320.511719 78.847656 321.230469 78.847656 322.152344 C 78.847656 323.6875 79.871094 323.585938 84.789062 321.84375 C 85.503906 321.535156 86.015625 322.152344 86.015625 323.378906 C 86.015625 324.609375 86.9375 325.632812 88.167969 325.9375 C 89.394531 326.246094 90.113281 326.964844 89.804688 327.371094 C 89.496094 327.886719 90.113281 328.804688 91.238281 329.523438 C 92.875 330.546875 93.183594 330.445312 93.183594 329.113281 C 93.183594 327.578125 93.390625 327.578125 95.4375 329.320312 C 97.484375 331.160156 97.585938 331.160156 96.972656 329.421875 C 96.152344 327.167969 97.894531 323.585938 99.839844 323.585938 C 101.683594 323.585938 103.425781 329.214844 103.832031 336.589844 C 104.039062 339.867188 104.550781 343.246094 104.859375 344.167969 C 105.777344 346.214844 100.660156 348.570312 95.640625 348.363281 C 91.339844 348.160156 91.035156 350.207031 94.824219 353.996094 C 96.257812 355.429688 97.175781 356.761719 96.972656 357.070312 C 95.640625 358.296875 85.707031 351.640625 80.589844 346.113281 C 74.855469 339.96875 73.625 339.558594 75.878906 344.472656 C 76.902344 346.523438 76.699219 347.441406 74.957031 349.59375 L 72.910156 352.257812 L 70.65625 348.671875 C 67.378906 343.347656 66.96875 344.371094 70.144531 349.902344 C 73.625 356.042969 78.847656 361.574219 80.179688 360.753906 C 80.792969 360.449219 80.894531 360.652344 80.488281 361.265625 C 80.078125 361.882812 81.101562 363.109375 82.839844 364.03125 L 85.914062 365.566406 L 86.222656 362.1875 C 86.527344 359.015625 86.628906 358.910156 90.929688 359.21875 C 102.398438 360.140625 110.078125 346.316406 107.519531 329.011719 C 104.652344 309.144531 98.203125 296.039062 88.269531 289.691406 C 82.636719 286.105469 77.210938 285.796875 73.523438 288.769531 Z M 73.523438 288.769531 "/>
<path style=" stroke:none;fill-rule:nonzero;fill:rgb(0%,0%,0%);fill-opacity:1;" d="M 137.214844 288.359375 C 131.277344 289.175781 123.085938 290.714844 119.089844 291.839844 C 114.996094 292.964844 110.488281 293.886719 109.160156 293.886719 C 107.726562 293.886719 106.394531 294.296875 106.085938 294.808594 C 105.0625 296.449219 111.921875 311.296875 113.664062 311.296875 C 114.585938 311.296875 116.222656 312.21875 117.351562 313.445312 C 118.578125 314.878906 119.910156 315.289062 121.34375 314.878906 C 122.46875 314.46875 125.03125 313.855469 126.976562 313.445312 C 129.433594 313.035156 130.96875 312.011719 131.890625 309.964844 C 132.710938 308.429688 134.347656 306.894531 135.988281 306.585938 C 137.523438 306.175781 139.878906 305.355469 141.3125 304.640625 C 142.746094 303.921875 146.328125 302.285156 149.300781 300.953125 C 155.851562 298.085938 160.972656 292.25 155.75 293.582031 C 154.113281 293.992188 153.601562 293.375 153.089844 290.40625 C 152.269531 286.105469 153.089844 286.207031 137.214844 288.359375 Z M 137.214844 288.359375 "/>
<path style=" stroke:none;fill-rule:nonzero;fill:rgb(0%,0%,0%);fill-opacity:1;" d="M 163.839844 291.738281 C 163.839844 292.964844 164.453125 293.886719 165.375 293.886719 C 166.195312 293.886719 166.910156 293.476562 166.910156 292.964844 C 166.910156 292.453125 166.195312 291.53125 165.375 290.816406 C 164.042969 289.792969 163.839844 289.894531 163.839844 291.738281 Z M 163.839844 291.738281 "/>
<path style=" stroke:none;fill-rule:nonzero;fill:rgb(0%,0%,0%);fill-opacity:1;" d="M 70.453125 331.265625 C 70.859375 333.824219 72.398438 335.460938 73.320312 334.539062 C 74.035156 333.824219 71.886719 328.703125 70.859375 328.703125 C 70.347656 328.703125 70.144531 329.832031 70.453125 331.265625 Z M 70.453125 331.265625 "/>
<path style=" stroke:none;fill-rule:nonzero;fill:rgb(0%,0%,0%);fill-opacity:1;" d="M 222.207031 335.566406 C 220.261719 336.382812 218.316406 337.613281 218.007812 338.125 C 217.601562 338.738281 216.574219 338.945312 215.757812 338.636719 C 213.605469 337.816406 209.101562 340.070312 208.488281 342.324219 C 208.179688 343.550781 208.894531 344.574219 210.636719 345.394531 C 212.789062 346.316406 213.8125 346.214844 217.191406 344.269531 C 219.339844 343.039062 222.414062 342.015625 224.152344 342.015625 C 228.042969 342.015625 228.761719 340.890625 227.125 337.101562 C 225.792969 334.132812 225.792969 334.132812 222.207031 335.566406 Z M 222.207031 335.566406 "/>
<path style=" stroke:none;fill-rule:nonzero;fill:rgb(0%,0%,0%);fill-opacity:1;" d="M 147.761719 337.714844 C 147.148438 338.125 146.023438 341.402344 145.40625 345.089844 C 143.257812 356.042969 142.949219 356.863281 139.980469 357.171875 C 138.136719 357.375 137.214844 357.070312 137.214844 356.042969 C 137.214844 353.074219 140.390625 344.167969 142.539062 341.402344 L 144.792969 338.433594 L 141.515625 341.503906 C 135.886719 346.625 132.402344 363.316406 135.066406 372.632812 C 136.191406 376.832031 138.238281 376.421875 138.34375 372.019531 C 138.546875 367.511719 139.878906 361.265625 140.289062 363.519531 C 140.390625 364.339844 140.492188 365.363281 140.390625 365.773438 C 140.390625 366.183594 140.902344 366.285156 141.621094 366.078125 C 142.949219 365.464844 144.078125 367.820312 147.558594 378.367188 C 149.195312 383.691406 150.835938 386.558594 153.804688 389.222656 C 155.957031 391.269531 157.695312 393.523438 157.695312 394.035156 C 157.695312 394.648438 158.617188 395.671875 159.742188 396.289062 C 160.871094 396.902344 161.484375 397.925781 161.074219 398.847656 C 160.5625 400.179688 160.359375 400.179688 159.027344 398.644531 C 158.003906 397.515625 158.105469 397.925781 159.230469 399.871094 C 160.257812 401.511719 163.125 404.992188 165.785156 407.449219 C 169.574219 411.136719 169.984375 411.75 167.9375 411.136719 C 161.382812 409.089844 155.75 405.605469 150.324219 400.179688 C 143.667969 393.523438 142.539062 394.445312 147.867188 402.125 C 151.246094 407.140625 151.246094 407.140625 149.402344 409.496094 C 147.867188 411.339844 147.148438 411.648438 146.023438 410.726562 C 143.871094 408.984375 134.144531 393.832031 134.144531 392.292969 C 134.144531 390.65625 129.84375 380.722656 129.433594 381.234375 C 128.613281 381.953125 133.222656 393.625 136.601562 399.769531 C 141.210938 407.859375 147.25 414.71875 153.394531 418.714844 C 158.925781 422.296875 164.042969 423.320312 160.152344 420.042969 C 157.695312 417.996094 156.46875 415.335938 157.285156 413.390625 C 157.695312 412.261719 158.71875 412.160156 162.203125 412.980469 C 164.660156 413.492188 167.9375 413.695312 169.574219 413.285156 C 173.671875 412.261719 178.789062 406.425781 180.734375 400.28125 L 182.578125 394.957031 L 180.121094 393.113281 C 178.789062 392.089844 177.5625 391.679688 177.355469 392.191406 C 177.152344 392.804688 176.332031 393.214844 175.617188 393.214844 C 174.695312 393.214844 173.976562 391.371094 173.464844 388.402344 C 173.054688 385.636719 171.828125 382.257812 170.699219 380.824219 C 169.675781 379.289062 168.960938 377.445312 169.164062 376.628906 C 169.472656 375.910156 170.597656 377.140625 171.828125 379.597656 C 173.054688 381.953125 174.488281 384.101562 175.105469 384.511719 C 176.84375 385.636719 176.230469 383.796875 173.464844 379.800781 C 172.03125 377.652344 171.007812 375.296875 171.210938 374.578125 C 171.519531 373.863281 173.261719 375.601562 175.207031 378.574219 C 177.050781 381.441406 179.507812 384.308594 180.429688 384.921875 C 183.398438 386.765625 182.785156 381.335938 179.710938 377.652344 C 177.152344 374.578125 176.84375 372.019531 179.097656 372.53125 C 182.578125 373.246094 173.976562 354.816406 167.320312 347.339844 C 161.074219 340.273438 151.347656 335.359375 147.761719 337.714844 Z M 168.960938 404.480469 C 168.960938 404.992188 168.550781 405.503906 167.9375 405.503906 C 167.425781 405.503906 166.910156 404.992188 166.910156 404.480469 C 166.910156 403.867188 167.425781 403.457031 167.9375 403.457031 C 168.550781 403.457031 168.960938 403.867188 168.960938 404.480469 Z M 168.960938 404.480469 "/>
<path style=" stroke:none;fill-rule:nonzero;fill:rgb(0%,0%,0%);fill-opacity:1;" d="M 196.402344 342.734375 C 194.253906 343.550781 192.71875 344.574219 192.921875 344.984375 C 193.230469 345.394531 191.691406 345.601562 189.644531 345.394531 C 187.597656 345.292969 184.113281 345.496094 182.066406 345.703125 L 178.175781 346.316406 L 180.734375 350.003906 C 182.167969 352.050781 184.011719 355.941406 184.933594 358.605469 C 186.46875 363.316406 187.699219 364.542969 188.824219 362.699219 C 189.132812 362.1875 192.203125 361.984375 195.789062 362.085938 C 201.011719 362.292969 202.546875 361.984375 204.082031 360.34375 C 205.105469 359.320312 206.644531 358.398438 207.460938 358.398438 C 209 358.398438 213.503906 355.839844 215.859375 353.585938 C 216.574219 352.871094 218.316406 352.257812 219.546875 352.257812 C 223.230469 352.257812 231.628906 347.238281 231.21875 345.191406 C 230.910156 344.167969 229.992188 343.65625 228.351562 343.757812 C 224.460938 344.167969 217.703125 346.417969 216.882812 347.648438 C 216.371094 348.261719 216.0625 348.058594 216.0625 347.136719 C 216.0625 346.113281 215.757812 346.007812 215.246094 346.726562 C 214.527344 347.957031 203.46875 351.847656 193.742188 354.304688 C 188.824219 355.636719 188.210938 355.53125 185.652344 353.691406 C 182.988281 351.640625 181.351562 347.136719 183.398438 347.136719 C 183.910156 347.136719 184.21875 347.546875 183.910156 347.957031 C 183.601562 348.46875 187.085938 348.875 191.488281 348.980469 C 196.097656 348.980469 199.679688 348.671875 199.679688 348.058594 C 199.679688 347.546875 199.167969 347.136719 198.453125 347.136719 C 197.019531 347.136719 198.347656 345.703125 199.988281 345.496094 C 200.703125 345.496094 202.035156 345.292969 202.957031 345.292969 C 203.980469 345.191406 205.210938 344.167969 205.824219 343.039062 C 206.847656 341.195312 206.644531 340.992188 203.570312 341.09375 C 201.726562 341.09375 198.453125 341.8125 196.402344 342.734375 Z M 196.402344 342.734375 "/>
<path style=" stroke:none;fill-rule:nonzero;fill:rgb(0%,0%,0%);fill-opacity:1;" d="M 139.265625 384.820312 C 139.265625 387.070312 140.59375 389.121094 141.925781 389.121094 C 143.972656 389.121094 143.667969 387.6875 141.3125 385.535156 C 140.1875 384.511719 139.265625 384.203125 139.265625 384.820312 Z M 139.265625 384.820312 "/>
<path style=" stroke:none;fill-rule:nonzero;fill:rgb(0%,0%,0%);fill-opacity:1;" d="M 228.964844 397.925781 C 227.429688 399.871094 223.847656 402.839844 220.875 404.582031 L 215.550781 407.757812 L 221.796875 407.246094 C 226.203125 406.9375 229.273438 405.914062 232.242188 404.070312 C 236.339844 401.511719 237.773438 399.359375 235.519531 399.359375 C 235.007812 399.359375 234.496094 398.847656 234.496094 398.234375 C 234.496094 397.621094 233.882812 396.59375 233.164062 395.777344 C 232.039062 394.648438 231.320312 395.058594 228.964844 397.925781 Z M 228.964844 397.925781 "/>
<path style=" stroke:none;fill-rule:nonzero;fill:rgb(0%,0%,0%);fill-opacity:1;" d="M 385.332031 369.355469 C 386.253906 369.5625 387.6875 369.5625 388.402344 369.355469 C 389.019531 369.050781 388.300781 368.84375 386.558594 368.84375 C 384.921875 368.84375 384.308594 369.050781 385.332031 369.355469 Z M 385.332031 369.355469 "/>
<path style=" stroke:none;fill-rule:nonzero;fill:rgb(0%,0%,0%);fill-opacity:1;" d="M 395.671875 370.074219 C 403.148438 372.839844 412.058594 383.488281 415.335938 393.523438 L 416.769531 397.824219 L 416.257812 390.246094 C 415.640625 382.464844 413.285156 375.296875 410.417969 372.941406 C 409.496094 372.222656 406.324219 371.199219 403.355469 370.6875 C 400.28125 370.074219 396.492188 369.460938 394.753906 369.152344 C 392.292969 368.640625 392.5 368.84375 395.671875 370.074219 Z M 395.671875 370.074219 "/>
<path style=" stroke:none;fill-rule:nonzero;fill:rgb(0%,0%,0%);fill-opacity:1;" d="M 380.722656 370.378906 C 381.441406 370.6875 382.363281 370.585938 382.667969 370.277344 C 383.078125 369.972656 382.464844 369.664062 381.335938 369.765625 C 380.210938 369.765625 379.902344 370.074219 380.722656 370.378906 Z M 380.722656 370.378906 "/>
<path style=" stroke:none;fill-rule:nonzero;fill:rgb(0%,0%,0%);fill-opacity:1;" d="M 390.144531 381.03125 C 397.722656 387.890625 399.359375 388.8125 399.359375 386.046875 C 399.359375 383.078125 396.59375 378.164062 394.34375 376.832031 C 393.214844 376.320312 390.554688 375.808594 388.402344 375.808594 L 384.511719 375.910156 Z M 390.144531 381.03125 "/>
<path style=" stroke:none;fill-rule:nonzero;fill:rgb(0%,0%,0%);fill-opacity:1;" d="M 354.203125 384.71875 L 351.742188 387.585938 L 354.609375 385.125 C 356.148438 383.691406 357.375 382.464844 357.375 382.257812 C 357.375 381.441406 356.558594 382.15625 354.203125 384.71875 Z M 354.203125 384.71875 "/>
<path style=" stroke:none;fill-rule:nonzero;fill:rgb(0%,0%,0%);fill-opacity:1;" d="M 343.140625 404.070312 C 343.140625 405.195312 343.449219 405.503906 343.757812 404.683594 C 344.0625 403.96875 343.960938 403.046875 343.65625 402.738281 C 343.347656 402.328125 343.039062 402.945312 343.140625 404.070312 Z M 343.140625 404.070312 "/>
<path style=" stroke:none;fill-rule:nonzero;fill:rgb(0%,0%,0%);fill-opacity:1;" d="M 342.222656 409.601562 C 342.222656 411.546875 342.425781 412.363281 342.734375 411.339844 C 342.9375 410.417969 342.9375 408.78125 342.734375 407.757812 C 342.425781 406.835938 342.222656 407.65625 342.222656 409.601562 Z M 342.222656 409.601562 "/>
<path style=" stroke:none;fill-rule:nonzero;fill:rgb(0%,0%,0%);fill-opacity:1;" d="M 355.328125 410.214844 C 355.328125 410.523438 356.761719 413.59375 358.605469 416.972656 C 362.699219 424.753906 370.074219 428.953125 374.578125 426.1875 C 375.5 425.574219 374.066406 424.140625 369.765625 421.476562 C 366.386719 419.429688 362.085938 415.949219 360.140625 413.695312 C 356.863281 409.90625 355.328125 408.78125 355.328125 410.214844 Z M 355.328125 410.214844 "/>
<path style=" stroke:none;fill-rule:nonzero;fill:rgb(0%,0%,0%);fill-opacity:1;" d="M 342.628906 419.328125 C 343.246094 425.371094 348.058594 434.175781 352.050781 436.53125 C 354.507812 437.964844 357.886719 438.578125 364.339844 438.886719 C 370.074219 439.089844 372.019531 438.988281 369.664062 438.476562 C 363.417969 437.042969 355.328125 431.921875 349.183594 425.265625 C 345.90625 421.785156 342.9375 418.097656 342.734375 417.074219 C 342.527344 416.050781 342.425781 417.074219 342.628906 419.328125 Z M 342.628906 419.328125 "/>
<path style=" stroke:none;fill-rule:nonzero;fill:rgb(0%,0%,0%);fill-opacity:1;" d="M 349.695312 418.507812 C 352.050781 424.34375 359.21875 430.695312 365.566406 432.539062 C 368.539062 433.460938 371.199219 433.972656 371.40625 433.765625 C 371.609375 433.664062 369.050781 431.820312 365.773438 429.773438 C 362.496094 427.726562 357.375 423.527344 354.507812 420.453125 C 351.539062 417.28125 348.875 414.71875 348.570312 414.71875 C 348.363281 414.71875 348.875 416.460938 349.695312 418.507812 Z M 349.695312 418.507812 "/>
<path style=" stroke:none;fill-rule:nonzero;fill:rgb(0%,0%,0%);fill-opacity:1;" d="M 376.628906 437.964844 C 377.34375 438.273438 378.265625 438.167969 378.574219 437.863281 C 378.980469 437.554688 378.367188 437.246094 377.242188 437.351562 C 376.113281 437.351562 375.808594 437.65625 376.628906 437.964844 Z M 376.628906 437.964844 "/>
</g>
</svg>
